<svg width="20" height="22" viewBox="0 0 20 22" fill="none" xmlns="http://www.w3.org/2000/svg">
<g clip-path="url(#clip0_423_3)">
<path d="M4.09424 4.6048C4.0997 5.8109 4.44738 6.88125 4.98175 7.63895C5.52133 8.404 6.21988 8.8152 6.93663 8.8152C7.65338 8.8152 8.35188 8.404 8.89148 7.63895C9.43013 6.8752 9.77903 5.79385 9.77903 4.57593C9.77903 3.23578 9.77418 2.21276 9.56878 1.51576C9.47043 1.18199 9.33938 0.975556 9.18433 0.849071C9.03498 0.727241 8.80993 0.635971 8.43323 0.635971C7.65508 0.635971 6.62943 1.03056 5.75333 1.7589C4.89157 2.47535 4.23324 3.4661 4.09424 4.6048Z" fill="white" stroke="black"/>
<path d="M5.45645 5.15191C4.92672 6.28606 5.0995 7.17771 5.56415 7.78536C6.04655 8.41621 6.90065 8.81521 7.8532 8.81521C9.66775 8.81521 11.2756 7.04321 11.2756 4.67366C11.2756 4.00034 11.3458 3.36879 11.4123 2.81866C11.419 2.76375 11.4255 2.70993 11.432 2.65716C11.4919 2.16623 11.5406 1.76639 11.5392 1.43145C11.5375 1.05544 11.4698 0.881852 11.3913 0.794382C11.3234 0.718687 11.1551 0.607452 10.6781 0.607452C9.7653 0.607452 8.75985 1.09115 7.80965 1.93621C6.86695 2.77463 6.02905 3.92595 5.45645 5.15191Z" fill="white" fill-opacity="0.07" stroke="black"/>
<path d="M0.701782 19.1561L16.3034 21.3049L14.4288 2.55823L0.701782 6.0133V19.1561Z" fill="white" stroke="black"/>
<path d="M19.3202 20.5509L16.7568 3.29329L16.4792 3.67728L16.412 3.59622L17.5248 20.4258C17.6488 20.346 17.7883 20.2855 17.9451 20.2514C18.3079 20.1725 18.684 20.2523 19.0564 20.4189C19.1423 20.4574 19.2302 20.5014 19.3202 20.5509Z" fill="white" stroke="black"/>
<path d="M8.7454 14.0307L10.1353 8.71284L5.2373 11.2072L8.7454 14.0307Z" fill="white" stroke="black"/>
<path d="M6.41231 12.8559L6.97925 13.3579L4.41798 16.2501L3.85105 15.7481L6.41231 12.8559Z" fill="white" stroke="black"/>
</g>
<defs>
<clipPath id="clip0_423_3">
<rect width="20" height="22" fill="white"/>
</clipPath>
</defs>
</svg>
