<svg width="20" height="22" viewBox="0 0 20 22" fill="none" xmlns="http://www.w3.org/2000/svg">
<g clip-path="url(#clip0_423_10)">
<path d="M4.09424 4.60481C4.0997 5.81091 4.44738 6.88126 4.98175 7.63896C5.52133 8.40401 6.21988 8.81521 6.93663 8.81521C7.65338 8.81521 8.35188 8.40401 8.89148 7.63896C9.43013 6.87521 9.77903 5.79386 9.77903 4.57595C9.77903 3.2358 9.77418 2.21278 9.56878 1.51578C9.47043 1.18201 9.33938 0.975571 9.18433 0.849086C9.03498 0.727256 8.80993 0.635986 8.43323 0.635986C7.65508 0.635986 6.62943 1.03057 5.75333 1.75891C4.89157 2.47537 4.23324 3.46612 4.09424 4.60481Z" fill="white" stroke="black"/>
<path d="M5.45645 5.15191C4.92672 6.28606 5.0995 7.17771 5.56415 7.78536C6.04655 8.41621 6.90065 8.81521 7.8532 8.81521C9.66775 8.81521 11.2756 7.04321 11.2756 4.67366C11.2756 4.00034 11.3458 3.36879 11.4123 2.81866C11.419 2.76375 11.4255 2.70993 11.432 2.65716C11.4919 2.16623 11.5406 1.76639 11.5392 1.43145C11.5375 1.05544 11.4698 0.881852 11.3913 0.794382C11.3234 0.718687 11.1551 0.607452 10.6781 0.607452C9.7653 0.607452 8.75985 1.09115 7.80965 1.93621C6.86695 2.77463 6.02905 3.92595 5.45645 5.15191Z" fill="white" fill-opacity="0.07" stroke="black"/>
<path d="M14.8686 1.93192L0.201782 5.62355V19.592L16.8641 21.8868L14.8686 1.93192Z" fill="#8B0101"/>
<path d="M17.071 2.00531L16.4521 2.86138L15.8112 2.08861L17.1279 22C17.5474 20.5762 18.219 20.1914 19.984 21.6174L17.071 2.00531Z" fill="#8B0101"/>
<path d="M10.9006 7.76199L4.3219 11.1122L9.03378 14.9047L10.9006 7.76199Z" fill="white"/>
<path d="M6.3798 12.3214L7.51367 13.3255L4.45034 16.7846L3.31648 15.7805L6.3798 12.3214Z" fill="white"/>
</g>
<defs>
<clipPath id="clip0_423_10">
<rect width="20" height="22" fill="white"/>
</clipPath>
</defs>
</svg>
