<svg width="241" height="62" viewBox="0 0 241 62" fill="none" xmlns="http://www.w3.org/2000/svg">
<path d="M77.3574 27.7598V32.2275C74.7988 33.585 72.1182 34.2637 69.3154 34.2637C65.6826 34.2637 62.7871 33.2627 60.6289 31.2607C58.4805 29.249 57.4062 26.7734 57.4062 23.834C57.4062 20.8945 58.5391 18.3994 60.8047 16.3486C63.0801 14.2979 66.0488 13.2725 69.7109 13.2725C72.6309 13.2725 75.1016 13.873 77.123 15.0742V19.6299C74.6426 18.2334 72.2939 17.5352 70.0771 17.5352C67.8994 17.5352 66.1172 18.1211 64.7305 19.293C63.3535 20.4551 62.665 21.9395 62.665 23.7461C62.665 25.5625 63.3438 27.0615 64.7012 28.2432C66.0684 29.4248 67.8164 30.0156 69.9453 30.0156C71 30.0156 72.0156 29.8789 72.9922 29.6055C73.9688 29.3223 75.4238 28.707 77.3574 27.7598ZM97.0303 30.25V34H81.4297V13.5361H86.5273V30.25H97.0303ZM105.16 13.5361V34H100.062V13.5361H105.16ZM132.406 34.8936L132.729 35.3184L128.744 38.7168C127.65 38.6387 126.518 38.4287 125.346 38.0869C124.242 37.7646 123.124 37.335 121.991 36.7979C120.917 36.2803 119.853 35.6748 118.798 34.9814C118.017 34.4639 117.089 34.0098 116.015 33.6191C115.126 33.2969 114.271 32.8428 113.451 32.2568C112.602 31.6514 111.854 30.9385 111.21 30.1182C110.517 29.249 109.984 28.3115 109.613 27.3057C109.203 26.2021 108.998 25.0645 108.998 23.8926C108.998 21.0605 110.106 18.585 112.323 16.4658C114.55 14.3369 117.372 13.2725 120.79 13.2725C124.257 13.2725 127.069 14.332 129.228 16.4512C131.386 18.5703 132.465 20.9922 132.465 23.7168C132.465 25.9238 131.776 27.9502 130.399 29.7959C129.032 31.6416 127.182 32.9307 124.848 33.6631C126.625 34.6787 128.48 35.1865 130.414 35.1865C131.166 35.1865 131.83 35.0889 132.406 34.8936ZM120.731 17.5352C118.788 17.5352 117.221 18.1162 116.029 19.2783C114.848 20.4307 114.257 21.9492 114.257 23.834C114.257 25.709 114.848 27.2227 116.029 28.375C117.221 29.5273 118.788 30.1035 120.731 30.1035C122.646 30.1035 124.203 29.5371 125.404 28.4043C126.605 27.2617 127.206 25.7383 127.206 23.834C127.206 21.9102 126.596 20.3818 125.375 19.249C124.164 18.1064 122.616 17.5352 120.731 17.5352ZM139.994 20.1719V22.1494C141.273 20.6455 142.772 19.8936 144.491 19.8936C145.927 19.8936 147.123 20.3525 148.08 21.2705C149.047 22.1885 149.53 23.502 149.53 25.2109V34H145.18V25.5771C145.18 23.7314 144.462 22.8086 143.026 22.8086C142.001 22.8086 140.99 23.5703 139.994 25.0938V34H135.644V20.1719H139.994ZM167.504 14.8545V18.8535C164.789 17.6328 162.626 17.0225 161.015 17.0225C160.097 17.0225 159.364 17.1787 158.817 17.4912C158.28 17.7939 158.012 18.1992 158.012 18.707C158.012 19.0977 158.207 19.4688 158.598 19.8203C158.988 20.1719 159.94 20.626 161.454 21.1826C162.968 21.7393 164.179 22.2568 165.087 22.7354C165.995 23.2139 166.776 23.8877 167.431 24.7568C168.095 25.626 168.427 26.7246 168.427 28.0527C168.427 29.9473 167.704 31.4561 166.259 32.5791C164.823 33.7021 162.929 34.2637 160.575 34.2637C158.036 34.2637 155.575 33.6045 153.192 32.2861V27.877C154.56 28.7949 155.771 29.4639 156.825 29.8838C157.88 30.3037 158.998 30.5137 160.18 30.5137C162.182 30.5137 163.183 29.8838 163.183 28.624C163.183 28.1943 162.982 27.7891 162.582 27.4082C162.182 27.0273 161.215 26.5635 159.682 26.0166C158.158 25.4697 156.947 24.9619 156.049 24.4932C155.16 24.0244 154.389 23.3555 153.734 22.4863C153.09 21.6172 152.768 20.5039 152.768 19.1465C152.768 17.3887 153.476 15.9727 154.892 14.8984C156.308 13.8145 158.202 13.2725 160.575 13.2725C162.763 13.2725 165.072 13.7998 167.504 14.8545ZM192.172 13.5361V34H187.074V25.7236H176.879V34H171.781V13.5361H176.879V21.7539H187.074V13.5361H192.172ZM207.597 13.2725C211.083 13.2725 213.905 14.3271 216.063 16.4365C218.222 18.5361 219.301 20.9824 219.301 23.7754C219.301 26.6074 218.207 29.0635 216.02 31.1436C213.832 33.2236 211.024 34.2637 207.597 34.2637C204.13 34.2637 201.308 33.2285 199.13 31.1582C196.952 29.0879 195.863 26.627 195.863 23.7754C195.863 20.9727 196.942 18.5215 199.101 16.4219C201.269 14.3223 204.101 13.2725 207.597 13.2725ZM207.597 30.0156C209.53 30.0156 211.088 29.4443 212.27 28.3018C213.451 27.1494 214.042 25.6406 214.042 23.7754C214.042 21.9004 213.451 20.3916 212.27 19.249C211.088 18.1064 209.53 17.5352 207.597 17.5352C205.653 17.5352 204.086 18.1064 202.895 19.249C201.713 20.3916 201.122 21.9004 201.122 23.7754C201.122 25.6406 201.713 27.1494 202.895 28.3018C204.086 29.4443 205.653 30.0156 207.597 30.0156ZM223.197 13.5361H232.323C234.394 13.5361 236.039 14.1367 237.26 15.3379C238.48 16.5391 239.091 17.96 239.091 19.6006C239.091 21.2998 238.485 22.7549 237.274 23.9658C236.073 25.1768 234.433 25.7822 232.353 25.7822H228.295V34H223.197V13.5361ZM228.295 17.2861V22.0322H230.668C232.787 22.0322 233.847 21.2412 233.847 19.6592C233.847 18.7705 233.563 18.1553 232.997 17.8135C232.431 17.4619 231.464 17.2861 230.097 17.2861H228.295Z" fill="#00008B"/>
<path d="M61.8276 43.8374C61.8276 43.5054 61.9448 43.2222 62.1792 42.9878C62.4136 42.7534 62.6943 42.6362 63.0215 42.6362C63.3535 42.6362 63.6367 42.7534 63.8711 42.9878C64.1055 43.2222 64.2227 43.5054 64.2227 43.8374C64.2227 44.1646 64.1055 44.4478 63.8711 44.687C63.6367 44.9214 63.3535 45.0386 63.0215 45.0386C62.6943 45.0386 62.4136 44.9214 62.1792 44.687C61.9448 44.4478 61.8276 44.1646 61.8276 43.8374ZM64.1201 46.0859V53H61.9448V46.0859H64.1201ZM69.0484 46.0859V47.0747C69.6881 46.3228 70.4376 45.9468 71.297 45.9468C72.0147 45.9468 72.6129 46.1763 73.0914 46.6353C73.5748 47.0942 73.8165 47.751 73.8165 48.6055V53H71.6412V48.7886C71.6412 47.8657 71.2823 47.4043 70.5646 47.4043C70.0519 47.4043 69.5465 47.7852 69.0484 48.5469V53H66.8731V46.0859H69.0484ZM81.4841 46.0859V47.5728H78.9646V50.4219C78.9646 50.7637 79.0573 51.0347 79.2429 51.2349C79.4333 51.4302 79.6945 51.5278 80.0266 51.5278C80.4758 51.5278 80.9616 51.3936 81.4841 51.125V52.6997C80.7907 52.9878 80.1193 53.1318 79.4699 53.1318C78.6203 53.1318 77.9611 52.9121 77.4924 52.4727C77.0236 52.0332 76.7893 51.3887 76.7893 50.5391V47.5728H75.8005V47.1479L78.6936 43.9106H78.9646V46.0859H81.4841ZM90.2576 50.854V52.2236C89.4275 52.8291 88.3997 53.1318 87.1741 53.1318C85.9583 53.1318 84.9866 52.8071 84.2591 52.1577C83.5315 51.5034 83.1678 50.6392 83.1678 49.5649C83.1678 48.5103 83.5096 47.6436 84.1932 46.9648C84.8768 46.2861 85.7483 45.9468 86.8079 45.9468C87.8724 45.9468 88.7439 46.3057 89.4227 47.0234C90.1063 47.7363 90.4261 48.6934 90.3821 49.8945H85.4163C85.4603 50.5195 85.6824 51.0005 86.0828 51.3374C86.4832 51.6743 87.0203 51.8428 87.6941 51.8428C88.5096 51.8428 89.3641 51.5132 90.2576 50.854ZM85.4603 48.752H88.4632C88.346 47.7461 87.8455 47.2432 86.9617 47.2432C86.0682 47.2432 85.5677 47.7461 85.4603 48.752ZM94.9223 46.0859V48.0635H94.9516C95.5814 46.6523 96.3163 45.9468 97.1562 45.9468C97.5565 45.9468 98.0375 46.1567 98.599 46.5767L97.9984 48.5029C97.4613 48.1611 97.0316 47.9902 96.7094 47.9902C96.2064 47.9902 95.7816 48.3027 95.435 48.9277C95.0932 49.5479 94.9223 49.9092 94.9223 50.0117V53H92.747V46.0859H94.9223ZM102.487 46.0859V47.0747C103.127 46.3228 103.876 45.9468 104.736 45.9468C105.454 45.9468 106.052 46.1763 106.53 46.6353C107.014 47.0942 107.255 47.751 107.255 48.6055V53H105.08V48.7886C105.08 47.8657 104.721 47.4043 104.003 47.4043C103.491 47.4043 102.985 47.7852 102.487 48.5469V53H100.312V46.0859H102.487ZM117.018 51.2935V52.502C116.295 52.9219 115.616 53.1318 114.982 53.1318C114.298 53.1318 113.893 52.873 113.766 52.3555C113.009 52.873 112.25 53.1318 111.488 53.1318C110.951 53.1318 110.494 52.9634 110.118 52.6265C109.742 52.2847 109.554 51.8892 109.554 51.4399C109.554 50.8394 109.747 50.356 110.133 49.9897C110.524 49.6187 111.7 49.1426 113.663 48.5615C113.712 47.79 113.312 47.4043 112.462 47.4043C111.539 47.4043 110.69 47.79 109.913 48.5615V46.7891C110.821 46.2275 111.82 45.9468 112.909 45.9468C114.862 45.9468 115.838 46.6475 115.838 48.0488V51.1982C115.838 51.5205 115.958 51.6816 116.197 51.6816C116.378 51.6816 116.651 51.5522 117.018 51.2935ZM113.663 51.3228V49.6528C112.936 49.9067 112.435 50.1362 112.162 50.3413C111.893 50.5415 111.759 50.7979 111.759 51.1104C111.759 51.3105 111.827 51.4839 111.964 51.6304C112.101 51.772 112.267 51.8428 112.462 51.8428C112.872 51.8428 113.273 51.6694 113.663 51.3228ZM123.792 46.0859V47.5728H121.272V50.4219C121.272 50.7637 121.365 51.0347 121.55 51.2349C121.741 51.4302 122.002 51.5278 122.334 51.5278C122.783 51.5278 123.269 51.3936 123.792 51.125V52.6997C123.098 52.9878 122.427 53.1318 121.778 53.1318C120.928 53.1318 120.269 52.9121 119.8 52.4727C119.331 52.0332 119.097 51.3887 119.097 50.5391V47.5728H118.108V47.1479L121.001 43.9106H121.272V46.0859H123.792ZM125.746 43.8374C125.746 43.5054 125.864 43.2222 126.098 42.9878C126.332 42.7534 126.613 42.6362 126.94 42.6362C127.272 42.6362 127.555 42.7534 127.79 42.9878C128.024 43.2222 128.141 43.5054 128.141 43.8374C128.141 44.1646 128.024 44.4478 127.79 44.687C127.555 44.9214 127.272 45.0386 126.94 45.0386C126.613 45.0386 126.332 44.9214 126.098 44.687C125.864 44.4478 125.746 44.1646 125.746 43.8374ZM128.039 46.0859V53H125.864V46.0859H128.039ZM134.359 45.9468C135.443 45.9468 136.361 46.2642 137.113 46.8989C137.87 47.5337 138.248 48.4175 138.248 49.5503C138.248 50.688 137.865 51.5693 137.098 52.1943C136.331 52.8193 135.418 53.1318 134.359 53.1318C133.211 53.1318 132.271 52.7998 131.539 52.1357C130.811 51.4668 130.448 50.6001 130.448 49.5356C130.448 48.4517 130.819 47.5825 131.561 46.9282C132.308 46.2739 133.241 45.9468 134.359 45.9468ZM134.359 51.8428C135.399 51.8428 135.919 51.0591 135.919 49.4917C135.919 47.9927 135.399 47.2432 134.359 47.2432C133.861 47.2432 133.47 47.4409 133.187 47.8364C132.909 48.2319 132.769 48.7983 132.769 49.5356C132.769 51.0737 133.299 51.8428 134.359 51.8428ZM142.788 46.0859V47.0747C143.428 46.3228 144.177 45.9468 145.037 45.9468C145.754 45.9468 146.353 46.1763 146.831 46.6353C147.314 47.0942 147.556 47.751 147.556 48.6055V53H145.381V48.7886C145.381 47.8657 145.022 47.4043 144.304 47.4043C143.792 47.4043 143.286 47.7852 142.788 48.5469V53H140.613V46.0859H142.788ZM157.318 51.2935V52.502C156.596 52.9219 155.917 53.1318 155.282 53.1318C154.599 53.1318 154.193 52.873 154.067 52.3555C153.31 52.873 152.55 53.1318 151.789 53.1318C151.252 53.1318 150.795 52.9634 150.419 52.6265C150.043 52.2847 149.855 51.8892 149.855 51.4399C149.855 50.8394 150.048 50.356 150.434 49.9897C150.824 49.6187 152.001 49.1426 153.964 48.5615C154.013 47.79 153.612 47.4043 152.763 47.4043C151.84 47.4043 150.99 47.79 150.214 48.5615V46.7891C151.122 46.2275 152.121 45.9468 153.21 45.9468C155.163 45.9468 156.139 46.6475 156.139 48.0488V51.1982C156.139 51.5205 156.259 51.6816 156.498 51.6816C156.679 51.6816 156.952 51.5522 157.318 51.2935ZM153.964 51.3228V49.6528C153.236 49.9067 152.736 50.1362 152.463 50.3413C152.194 50.5415 152.06 50.7979 152.06 51.1104C152.06 51.3105 152.128 51.4839 152.265 51.6304C152.401 51.772 152.567 51.8428 152.763 51.8428C153.173 51.8428 153.573 51.6694 153.964 51.3228ZM161.346 42.7681V53H159.171V42.7681H161.346ZM171.305 46.0859V46.6865C171.886 46.1934 172.545 45.9468 173.283 45.9468C174.181 45.9468 174.94 46.2861 175.56 46.9648C176.181 47.6436 176.491 48.4761 176.491 49.4624C176.491 50.5708 176.178 51.4595 175.553 52.1284C174.933 52.7974 174.11 53.1318 173.085 53.1318C172.45 53.1318 171.857 52.9731 171.305 52.6558V56.4497H169.13V46.0859H171.305ZM171.305 48.0488V51.2275C171.715 51.5303 172.135 51.6816 172.565 51.6816C173.092 51.6816 173.51 51.4937 173.817 51.1177C174.13 50.7368 174.286 50.2241 174.286 49.5796C174.286 48.9204 174.142 48.4077 173.854 48.0415C173.571 47.6753 173.17 47.4922 172.653 47.4922C172.218 47.4922 171.769 47.6777 171.305 48.0488ZM181.053 46.0859V48.0635H181.082C181.712 46.6523 182.447 45.9468 183.287 45.9468C183.687 45.9468 184.168 46.1567 184.729 46.5767L184.129 48.5029C183.592 48.1611 183.162 47.9902 182.84 47.9902C182.337 47.9902 181.912 48.3027 181.565 48.9277C181.224 49.5479 181.053 49.9092 181.053 50.0117V53H178.877V46.0859H181.053ZM189.629 45.9468C190.713 45.9468 191.63 46.2642 192.382 46.8989C193.139 47.5337 193.518 48.4175 193.518 49.5503C193.518 50.688 193.134 51.5693 192.368 52.1943C191.601 52.8193 190.688 53.1318 189.629 53.1318C188.481 53.1318 187.541 52.7998 186.809 52.1357C186.081 51.4668 185.717 50.6001 185.717 49.5356C185.717 48.4517 186.088 47.5825 186.831 46.9282C187.578 46.2739 188.51 45.9468 189.629 45.9468ZM189.629 51.8428C190.669 51.8428 191.189 51.0591 191.189 49.4917C191.189 47.9927 190.669 47.2432 189.629 47.2432C189.13 47.2432 188.74 47.4409 188.457 47.8364C188.178 48.2319 188.039 48.7983 188.039 49.5356C188.039 51.0737 188.569 51.8428 189.629 51.8428ZM202.841 42.7681V53H200.665V52.4434C200.109 52.9023 199.469 53.1318 198.746 53.1318C197.823 53.1318 197.052 52.79 196.432 52.1064C195.817 51.4229 195.509 50.5659 195.509 49.5356C195.509 48.481 195.821 47.6191 196.446 46.9502C197.076 46.2812 197.882 45.9468 198.863 45.9468C199.474 45.9468 200.074 46.0933 200.665 46.3862V42.7681H202.841ZM200.665 51.1104V47.8071C200.27 47.5386 199.864 47.4043 199.449 47.4043C198.903 47.4043 198.475 47.5947 198.168 47.9756C197.865 48.3564 197.714 48.8911 197.714 49.5796C197.714 50.2144 197.865 50.7246 198.168 51.1104C198.47 51.4912 198.873 51.6816 199.376 51.6816C199.821 51.6816 200.25 51.4912 200.665 51.1104ZM210.296 53V52.0112C209.656 52.7583 208.911 53.1318 208.062 53.1318C207.31 53.1318 206.7 52.8999 206.231 52.436C205.762 51.9722 205.528 51.3301 205.528 50.5098V46.0859H207.703V50.3633C207.703 51.2422 208.067 51.6816 208.794 51.6816C209.204 51.6816 209.554 51.5229 209.842 51.2056C210.135 50.8833 210.281 50.6465 210.281 50.4951V46.0859H212.471V53H210.296ZM221.215 51.1104V52.6704C220.366 52.978 219.587 53.1318 218.879 53.1318C217.663 53.1318 216.691 52.8071 215.964 52.1577C215.236 51.5034 214.872 50.6392 214.872 49.5649C214.872 48.5151 215.239 47.6509 215.971 46.9722C216.708 46.2886 217.646 45.9468 218.784 45.9468C219.516 45.9468 220.292 46.0981 221.113 46.4009V48.0195C220.512 47.7119 219.921 47.5581 219.34 47.5581C218.691 47.5581 218.171 47.7388 217.78 48.1001C217.39 48.4614 217.194 48.9448 217.194 49.5503C217.194 50.1606 217.385 50.6538 217.766 51.0298C218.146 51.4009 218.647 51.5864 219.267 51.5864C219.726 51.5864 220.375 51.4277 221.215 51.1104ZM228.539 46.0859V47.5728H226.019V50.4219C226.019 50.7637 226.112 51.0347 226.297 51.2349C226.488 51.4302 226.749 51.5278 227.081 51.5278C227.53 51.5278 228.016 51.3936 228.539 51.125V52.6997C227.845 52.9878 227.174 53.1318 226.524 53.1318C225.675 53.1318 225.016 52.9121 224.547 52.4727C224.078 52.0332 223.844 51.3887 223.844 50.5391V47.5728H222.855V47.1479L225.748 43.9106H226.019V46.0859H228.539ZM235.32 46.4595V48.0049C234.49 47.4971 233.721 47.2432 233.013 47.2432C232.49 47.2432 232.229 47.4214 232.229 47.7778C232.229 47.8706 232.283 47.9634 232.39 48.0562C232.503 48.144 232.925 48.3345 233.657 48.6274C234.39 48.9155 234.907 49.25 235.21 49.6309C235.513 50.0117 235.664 50.4292 235.664 50.8833C235.664 51.6011 235.42 52.1553 234.932 52.5459C234.443 52.9365 233.748 53.1318 232.844 53.1318C231.917 53.1318 231.091 52.9634 230.369 52.6265V51.0957C231.257 51.4863 232.002 51.6816 232.603 51.6816C233.306 51.6816 233.657 51.5107 233.657 51.1689C233.657 51.0371 233.591 50.9126 233.46 50.7954C233.333 50.6782 232.898 50.4756 232.156 50.1875C231.414 49.8994 230.906 49.582 230.632 49.2354C230.359 48.8887 230.222 48.5029 230.222 48.0781C230.222 47.4482 230.483 46.9355 231.006 46.54C231.533 46.1445 232.227 45.9468 233.086 45.9468C233.911 45.9468 234.656 46.1177 235.32 46.4595Z" fill="black"/>
<path d="M0.590027 55.4876C0.590027 42.6501 0.590027 29.8127 0.590027 16.9777C3.76749 16.4316 6.86074 15.5459 9.95909 14.6706C10.5563 14.6757 11.1178 14.5659 11.5848 14.1576C12.7129 14.1933 13.7542 13.8462 14.7751 13.4225C15.6224 13.42 16.4136 13.1724 17.192 12.8713C20.3031 12.098 23.4167 11.3221 26.5279 10.5488C27.1251 10.3905 27.7248 10.2323 28.322 10.0741C29.2536 9.91328 30.1877 9.75505 31.0452 9.32883C31.7113 9.3467 32.3239 9.12976 32.9338 8.90262C35.2818 8.33604 37.6426 7.81539 39.9702 7.1799C40.7741 6.96041 41.0115 7.11099 41.0727 7.91492C41.2284 9.90307 41.4454 11.8887 41.6419 13.8743C42.4458 21.9443 43.2498 30.0143 44.0588 38.0817C44.827 45.7714 45.5927 53.4612 46.3864 61.1458C46.4502 61.7711 46.2664 61.8783 45.7101 61.7889C44.4518 61.5899 43.1885 61.4316 41.9303 61.2581C32.9389 60.0126 23.9451 58.7723 14.9537 57.5191C10.1607 56.8581 5.37537 56.169 0.590027 55.4876ZM11.9472 32.2066C13.4403 33.4214 14.8236 34.5903 16.2604 35.6878C16.8194 36.114 16.9087 36.3564 16.3906 36.9205C14.553 38.9188 12.7767 40.9733 10.9851 43.0176C10.4032 43.6812 9.41548 44.3652 9.40272 45.0517C9.38996 45.7663 10.638 46.1977 11.1841 46.874C12.034 47.9229 12.57 47.5886 13.305 46.7209C15.3314 44.3218 17.4574 42.0095 19.5043 39.6258C20.0402 39.0031 20.4103 38.9648 21.0254 39.5211C21.9977 40.4017 23.0773 41.1622 24.0752 42.0172C24.7107 42.5608 24.9302 42.5582 25.1599 41.6471C26.4615 36.4713 27.8448 31.3133 29.1847 26.1452C29.4399 25.1626 29.8406 24.2055 29.8789 23.0647C23.871 26.1324 17.9908 29.1287 11.9472 32.2066Z" fill="#8B0101"/>
<path d="M9.95654 14.6731C10.2143 10.2093 12.7027 7.10844 16.1073 4.5537C17.876 3.22657 22.0105 1.93261 22.0105 1.93261L24.0497 1.42218C24.0497 1.42218 26.9464 0.807101 27.8754 0.91174C28.8044 1.01638 28.5926 1.09295 29.6594 1.42218C30.8155 1.61359 33.2937 3.65789 33.1788 6.00334C33.1304 6.97317 33.0181 7.94045 32.9338 8.90773C32.3239 9.13742 31.7113 9.35181 31.0452 9.33394C31.1601 7.98639 31.3107 6.64394 31.3719 5.29384C31.4 4.65579 31.2724 3.98712 30.4735 3.81612C29.5037 3.6094 28.5466 3.72169 27.587 3.94884C27.1863 4.04327 27.2629 4.27296 27.3599 4.49245C28.1408 6.27898 28.1051 8.20077 28.322 10.0817C27.7248 10.24 27.1276 10.3982 26.5279 10.5564C26.3798 9.00471 26.4003 7.43512 25.974 5.91146C25.7265 5.02075 25.4381 4.62772 24.4657 5.26832C21.4516 7.25391 19.0244 9.77802 17.192 12.8789C16.4136 13.1801 15.6224 13.4276 14.7776 13.4302C16.7122 9.70656 19.443 6.6516 23.0594 3.96925C20.5353 3.93352 18.7667 4.91867 17.0822 6.06715C14.1932 8.03743 12.4322 10.7963 11.5874 14.1627C11.1152 14.5659 10.5538 14.6782 9.95654 14.6731Z" fill="#090808"/>
<path d="M11.9473 32.2066C17.9908 29.1261 23.8711 26.1298 29.8814 23.0672C29.8406 24.2081 29.4399 25.1651 29.1872 26.1477C27.8473 31.3159 26.4641 36.4713 25.1625 41.6497C24.9328 42.5608 24.7133 42.5634 24.0778 42.0197C23.0799 41.1648 22.0003 40.4042 21.0279 39.5237C20.4128 38.9648 20.0428 39.0031 19.5068 39.6283C17.46 42.0121 15.334 44.3244 13.3076 46.7234C12.5725 47.5911 12.0391 47.9255 11.1867 46.8765C10.638 46.2002 9.39252 45.7689 9.40528 45.0543C9.41549 44.3677 10.4032 43.6838 10.9876 43.0202C12.7793 40.9784 14.5556 38.9239 16.3932 36.923C16.9112 36.359 16.8219 36.1191 16.263 35.6903C14.8236 34.5903 13.4403 33.4214 11.9473 32.2066Z" fill="#FDFBFB"/>
<path d="M55 60.962C49.8216 57.7769 49.4056 57.8177 47.1291 61.692C45.9372 43.6378 44.7555 25.7547 43.5535 7.52444C44.2783 8.31052 44.7683 8.84392 45.3119 9.43348C45.8555 8.72652 46.3583 8.07316 47.0193 7.21563C49.6915 25.2289 52.3304 43.0023 55 60.962Z" fill="#8C0404"/>
</svg>
