<svg width="80" height="80" viewBox="0 0 80 80" fill="none" xmlns="http://www.w3.org/2000/svg">
<path d="M41.4806 18.9257C40.3826 15.4669 40.9178 13.2297 43.1825 11.6924C45.4472 10.1552 47.6021 10.4572 50.6216 12.9277C51.253 12.2277 51.8843 11.5552 52.5569 10.814C52.9625 10.3616 53.4576 9.99824 54.0109 9.74697C54.5642 9.49571 55.1635 9.36197 55.7711 9.35423C56.3787 9.34649 56.9813 9.46491 57.5408 9.70201C58.1003 9.9391 58.6045 10.2897 59.0215 10.7317C59.5568 11.2395 60.0372 11.816 60.6274 12.461C61.9724 11.116 63.2763 9.74344 64.4842 8.54934C65.238 7.77982 66.2137 7.26548 67.2746 7.07841C68.3354 6.89135 69.4282 7.04094 70.3998 7.50621C71.1999 7.88326 71.8971 8.44807 72.432 9.15255C72.9669 9.85703 73.3237 10.6803 73.472 11.5524C73.6202 12.4244 73.5556 13.3193 73.2836 14.161C73.0115 15.0027 72.5401 15.7662 71.9096 16.3865C70.7566 17.5806 69.5488 18.7472 68.2586 20.0374C68.8076 20.559 69.3429 21.0256 69.837 21.5335C70.2874 21.9486 70.6469 22.4526 70.8928 23.0137C71.1387 23.5747 71.2657 24.1807 71.2657 24.7932C71.2657 25.4058 71.1387 26.0117 70.8928 26.5728C70.6469 27.1338 70.2874 27.6378 69.837 28.053C69.1645 28.753 68.4645 29.4255 67.6822 30.1392C68.3506 30.676 68.8883 31.3578 69.2544 32.133C69.6206 32.9081 69.8058 33.7564 69.7959 34.6137C69.794 35.7397 69.4334 36.8358 68.7665 37.743C67.243 39.7469 64.8136 40.2548 61.6568 39.1156C61.6568 39.8567 61.6568 40.5567 61.6568 41.2704C61.708 42.423 61.5115 43.5731 61.0806 44.6433C60.6497 45.7135 59.9944 46.6788 59.1588 47.4743C51.2713 55.316 43.3884 63.1669 35.5101 71.0269C34.7891 71.807 33.9146 72.4295 32.9414 72.8552C31.9682 73.281 30.9175 73.5007 29.8553 73.5007C28.793 73.5007 27.7423 73.281 26.7691 72.8552C25.7959 72.4295 24.9214 71.807 24.2004 71.0269C19.2959 66.1315 14.4097 61.259 9.54182 56.4094C8.74248 55.6986 8.10271 54.8266 7.66461 53.8508C7.2265 52.875 7 51.8174 7 50.7477C7 49.6781 7.2265 48.6205 7.66461 47.6447C8.10271 46.6689 8.74248 45.7969 9.54182 45.0861C17.4476 37.1803 25.3625 29.2837 33.2866 21.3962C34.0479 20.6077 34.9639 19.985 35.9771 19.5669C36.9903 19.1489 38.0789 18.9446 39.1747 18.9668L41.4806 18.9257ZM11.5183 47.5703C11.0781 47.9671 10.7244 48.4503 10.4794 48.9899C10.2344 49.5294 10.1033 50.1137 10.0943 50.7062C10.0852 51.2987 10.1985 51.8868 10.427 52.4335C10.6555 52.9803 10.9943 53.4741 11.4222 53.884C16.5463 59.0447 21.6887 64.178 26.8494 69.2838C27.3324 69.7478 27.9213 70.087 28.5651 70.272C29.3942 70.5223 30.2783 70.5258 31.1094 70.282C31.9406 70.0383 32.6827 69.5579 33.2454 68.8994L47.5472 54.5977C50.768 51.386 53.9706 48.1834 57.1549 44.99C57.5168 44.6826 57.8101 44.3026 58.0158 43.8747C58.2215 43.4467 58.335 42.9803 58.349 42.5057C58.349 40.694 58.349 38.8822 58.349 37.0156C58.3324 36.6868 58.2068 36.373 57.9921 36.1234C53.4902 31.5484 48.9837 27.0419 44.4727 22.604C44.2729 22.3971 44.0045 22.2702 43.7178 22.2472C41.9747 22.2472 40.2316 22.2472 38.4885 22.2472C37.8312 22.2621 37.1856 22.4239 36.5989 22.7208C36.0123 23.0176 35.4996 23.442 35.0983 23.9628C35.1107 24.0215 35.134 24.0774 35.1669 24.1275L38.5708 27.4491C39.2571 28.1353 39.9433 28.8216 40.6159 29.5216C40.9053 29.8092 41.0686 30.1999 41.0699 30.6079C41.0712 31.0159 40.9103 31.4076 40.6227 31.697C40.3352 31.9864 39.9444 32.1497 39.5364 32.151C39.1285 32.1523 38.7367 31.9915 38.4473 31.7039C38.214 31.5118 38.0081 31.2921 37.7885 31.0863L32.9983 26.2138L29.7729 29.4392C30.6925 30.3588 31.6807 31.3059 32.6278 32.2941C32.9113 32.5626 33.1317 32.8908 33.2729 33.2549C33.3473 33.5744 33.3147 33.9096 33.1799 34.2087C33.0452 34.5079 32.8159 34.7545 32.5272 34.9105C32.2386 35.0665 31.9067 35.1233 31.5826 35.0721C31.2585 35.021 30.9602 34.8647 30.7337 34.6274C29.6768 33.5843 28.6337 32.5274 27.6318 31.5118L24.4063 34.7509L28.8533 39.1842C29.169 39.4999 29.5121 39.8018 29.8004 40.145C30.0423 40.4357 30.1663 40.8067 30.1478 41.1845C30.1293 41.5623 29.9697 41.9194 29.7005 42.1851C29.4313 42.4509 29.0722 42.6059 28.6942 42.6195C28.3162 42.6331 27.9468 42.5043 27.6592 42.2587C27.4524 42.0771 27.2554 41.8847 27.069 41.6822C25.4494 40.0763 23.8299 38.4568 22.2789 36.8921L18.9985 40.1861C19.1633 40.3234 19.3966 40.4744 19.5887 40.6665C20.4672 41.5312 21.3456 42.3685 22.1828 43.2606C22.359 43.4299 22.4905 43.6402 22.5658 43.8726C22.6411 44.1051 22.6577 44.3526 22.6142 44.593C22.5708 44.8334 22.4685 45.0594 22.3166 45.2508C22.1648 45.4422 21.9679 45.5931 21.7436 45.69C21.4369 45.8342 21.0908 45.872 20.7602 45.7974C20.4296 45.7228 20.1333 45.5401 19.9181 45.2782L16.9809 42.2861L13.6869 45.5665C13.8875 45.7112 14.08 45.867 14.2633 46.0331C15.828 47.5978 17.4064 49.1625 18.9574 50.7409C19.1642 50.9143 19.3207 51.14 19.4107 51.3945C19.5006 51.649 19.5207 51.9229 19.4689 52.1878C19.417 52.4527 19.2951 52.6988 19.1158 52.9005C18.9366 53.1023 18.7065 53.2523 18.4495 53.335C18.1397 53.4304 17.808 53.429 17.499 53.3309C17.1899 53.2328 16.9182 53.0427 16.7201 52.786C15.0045 51.0428 13.2751 49.3272 11.5183 47.5703ZM66.7351 34.2294C66.5602 33.7674 66.3198 33.3329 66.0214 32.9392C59.8999 26.7903 53.7739 20.6596 47.6432 14.5473C47.4129 14.2954 47.1261 14.1019 46.8063 13.9826C46.4866 13.8632 46.143 13.8216 45.804 13.861C45.3784 13.8971 44.9724 14.0565 44.636 14.3198C44.2996 14.5831 44.0473 14.9388 43.91 15.3434C43.7417 15.7759 43.7148 16.2507 43.8332 16.6995C43.9515 17.1483 44.2091 17.548 44.5688 17.8414L54.5059 27.751L62.7411 35.9862C63.0563 36.3456 63.4801 36.5923 63.9483 36.689C64.4165 36.7856 64.9034 36.7268 65.3351 36.5215C65.7647 36.3151 66.1254 35.989 66.3738 35.5823C66.6222 35.1756 66.7477 34.7057 66.7351 34.2294ZM65.5547 27.9706L65.7606 27.8196C66.3783 27.1746 67.0096 26.5432 67.6273 25.8844C67.797 25.744 67.9337 25.5679 68.0275 25.3686C68.1213 25.1693 68.1699 24.9517 68.1699 24.7315C68.1699 24.5112 68.1213 24.2936 68.0275 24.0943C67.9337 23.895 67.797 23.7189 67.6273 23.5785L65.3351 21.3001C64.292 20.257 64.3057 19.5845 65.3351 18.5551C66.8175 17.0453 68.3135 15.5492 69.7684 14.0257C70.0841 13.6802 70.3061 13.2597 70.4135 12.8042C70.5025 12.3236 70.4392 11.8272 70.2325 11.3843C70.0258 10.9414 69.6861 10.5741 69.2606 10.3336C68.8148 10.1175 68.3142 10.0412 67.8243 10.1147C67.3344 10.1882 66.8782 10.408 66.5155 10.7454C64.9508 12.2552 63.4136 13.861 61.9038 15.3571C61.7596 15.5638 61.5677 15.7326 61.3442 15.8492C61.1208 15.9657 60.8725 16.0266 60.6205 16.0266C60.3685 16.0266 60.1202 15.9657 59.8968 15.8492C59.6733 15.7326 59.4814 15.5638 59.3372 15.3571C58.5137 14.561 57.7176 13.7375 56.8941 12.9414C56.7789 12.8024 56.6374 12.6876 56.4777 12.6034C56.318 12.5192 56.1432 12.4673 55.9635 12.4507C55.7837 12.4341 55.6024 12.4532 55.43 12.5068C55.2576 12.5604 55.0975 12.6474 54.9588 12.763C54.149 13.4904 53.449 14.3277 52.7353 15.0963L65.5547 27.9706Z" fill="#FFB100" stroke="white"/>
</svg>
