<svg width="80" height="80" viewBox="0 0 80 80" fill="none" xmlns="http://www.w3.org/2000/svg">
<path d="M41.1407 6C41.4149 6.16543 41.6353 6.40676 41.7753 6.69481C41.9153 6.98287 41.9688 7.3053 41.9294 7.62313C41.9294 8.56043 41.9294 9.50916 41.9294 10.5265C43.0724 10.5265 44.2155 10.5265 45.3585 10.5265C46.9088 10.5482 48.4059 11.0946 49.6057 12.0765C50.8056 13.0584 51.6373 14.4178 51.9653 15.9331C52.124 17.0938 52.0815 18.2732 51.8396 19.4194C51.8396 19.8309 51.7253 20.2424 51.6682 20.7225H59.7381C60.233 20.6828 60.7306 20.7511 61.1966 20.9226C61.6625 21.0942 62.0856 21.3648 62.4367 21.7159C62.7878 22.067 63.0584 22.4901 63.23 22.956C63.4015 23.422 63.4698 23.9196 63.4301 24.4145V42.4633C63.4953 43.3217 63.2353 44.1732 62.7017 44.8487C62.168 45.5242 61.3998 45.9743 60.5496 46.1096C56.549 47.0317 52.5445 47.9385 48.5362 48.8301C47.9761 48.9558 47.8504 49.2187 47.7704 49.6988C47.3738 52.4282 47.7996 55.2138 48.9934 57.7001C49.6107 59.1175 50.2279 60.5234 50.8337 61.9523C51.6819 64.0472 52.1129 66.2876 52.1025 68.5477C52.1025 69.8965 52.1025 71.2452 52.1025 72.594C52.1025 73.5885 51.6681 74 50.6737 74H21.8117C20.9087 74 20.4172 73.6342 20.4172 72.8569C20.4172 70.2279 20.1543 67.5646 20.8401 64.9928C21.2764 63.4229 21.8462 61.8933 22.5433 60.4206C23.5658 58.4894 24.3086 56.4227 24.7493 54.2824C24.9574 52.5483 24.9189 50.7934 24.635 49.0701C23.9721 43.8121 23.332 38.6226 22.7147 33.4332C22.3604 30.587 22.0175 27.7179 21.6403 24.8832C21.5835 24.6043 21.4707 24.3399 21.3088 24.1059L17.4224 18.2992C17.1138 17.8534 16.828 17.4305 17.1252 16.8361C17.2536 16.5875 17.4627 16.3899 17.7181 16.2756C17.9736 16.1614 18.2602 16.1374 18.5312 16.2074C18.7903 16.2861 19.0629 16.3097 19.3317 16.2768C19.6004 16.2438 19.8593 16.1551 20.0918 16.0163C20.3243 15.8775 20.5252 15.6916 20.6816 15.4706C20.838 15.2496 20.9465 14.9983 21.0001 14.7329C21.4699 13.4613 22.3326 12.3725 23.463 11.6243C24.5935 10.8762 25.9329 10.5076 27.2869 10.5722C28.3499 10.5722 29.4016 10.5722 30.556 10.5722C30.556 9.58917 30.556 8.67474 30.556 7.7603C30.4981 7.42417 30.5398 7.07844 30.6758 6.76568C30.8119 6.45291 31.0365 6.18677 31.3219 6L41.1407 6ZM20.28 18.505C21.3088 20.0595 22.3261 21.534 23.2748 23.0772C23.5681 23.5277 23.7665 24.0333 23.8578 24.5631C24.8255 32.1834 25.7743 39.8038 26.704 47.4241C26.8183 48.3271 26.9554 49.2416 27.0812 50.1903H44.7984C45.1528 50.1903 45.4728 50.1903 45.5414 49.6988C46.0443 45.7095 46.593 41.6974 47.1188 37.7425C47.8046 32.5759 48.4943 27.4055 49.1877 22.2313C49.3478 21.0197 49.5078 19.7966 49.6678 18.5393L20.28 18.505ZM27.1955 52.4764C27.1269 53.1736 27.0812 53.8366 26.9897 54.4881C26.5743 56.9316 25.7349 59.2836 24.5093 61.4379C23.6748 62.9235 23.1243 64.5515 22.8862 66.2387C22.7147 68.0333 22.7147 69.8279 22.589 71.6339H49.7707C50.1786 68.2905 49.6935 64.8987 48.3647 61.8037C47.2415 59.6188 46.3562 57.3195 45.7243 54.9454C45.5528 54.1224 45.4385 53.2994 45.3014 52.4535L27.1955 52.4764ZM56.6061 27.5122H51.1652C50.8109 27.5122 50.7309 27.6608 50.6851 27.9808C50.2165 31.5471 49.7364 35.102 49.2563 38.6683C49.1191 39.7314 48.982 40.7944 48.8448 41.9375L56.6061 40.2115V27.5122ZM48.2161 46.4982C48.3419 46.4982 48.3876 46.4982 48.4219 46.4982L60.1724 43.8464C60.8926 43.6749 61.1669 43.2748 61.1669 42.4747V24.4031C61.1669 23.4086 60.744 22.9971 59.7495 22.9857H51.3595L51.0623 25.2718H57.2119C58.5607 25.2718 58.9037 25.6033 58.9037 26.9635V40.4629C58.9037 41.8117 58.6979 42.0632 57.3834 42.349L50.5251 43.8921C49.8736 44.0407 49.0048 44.0521 48.6391 44.4865C48.2733 44.9208 48.319 45.7781 48.2161 46.4982ZM22.8747 16.1388H49.6221C49.613 16.0381 49.5938 15.9386 49.5649 15.8417C49.2407 14.9196 48.6295 14.1257 47.8211 13.5765C47.0126 13.0272 46.0494 12.7515 45.0728 12.7897C41.9294 12.7897 38.7974 12.7897 35.654 12.7897C32.9221 12.7897 30.1788 12.7897 27.4469 12.7897C26.4151 12.7333 25.3957 13.0362 24.5621 13.6469C23.7285 14.2575 23.1322 15.1381 22.8747 16.1388ZM39.6204 8.2861H32.8993V10.4579H39.6204V8.2861Z" fill="#FFB100" stroke="white" stroke-width="0.3"/>
<path d="M30.5903 46.8183L29.4473 23.0429H31.7334L32.8764 46.6811L30.5903 46.8183Z" fill="#FFB100" stroke="white" stroke-width="0.3"/>
<path d="M39.6432 46.7154C40.0205 38.7141 40.3977 30.8956 40.7863 23.0314H43.0724L41.9293 46.7154H39.6432Z" fill="#FFB100" stroke="white" stroke-width="0.3"/>
<path d="M30.6018 62.6267C30.6016 61.1246 31.1928 59.6829 32.2473 58.6134C33.3019 57.5439 34.7351 56.9324 36.237 56.9114C37.0007 56.8771 37.7634 56.9978 38.4791 57.2664C39.1948 57.5349 39.8487 57.9458 40.4012 58.474C40.9538 59.0023 41.3935 59.637 41.694 60.3399C41.9944 61.0428 42.1494 61.7994 42.1494 62.5638C42.1494 63.3282 41.9944 64.0847 41.694 64.7877C41.3935 65.4906 40.9538 66.1253 40.4012 66.6536C39.8487 67.1818 39.1948 67.5926 38.4791 67.8612C37.7634 68.1298 37.0007 68.2505 36.237 68.2162C34.7567 68.1958 33.342 67.6018 32.2909 66.5592C31.2397 65.5166 30.6342 64.1068 30.6018 62.6267ZM36.2484 66.0558C36.9296 66.0557 37.5952 65.8527 38.1605 65.4728C38.7258 65.0929 39.1652 64.5532 39.4226 63.9226C39.68 63.292 39.7438 62.599 39.6058 61.932C39.4678 61.265 39.1344 60.6543 38.6479 60.1775C38.1615 59.7008 37.544 59.3797 36.8744 59.2553C36.2048 59.1308 35.5132 59.2086 34.8879 59.4787C34.2627 59.7487 33.732 60.1989 33.3636 60.7718C32.9951 61.3447 32.8057 62.0143 32.8193 62.6952C32.8519 63.5827 33.2275 64.423 33.8671 65.0391C34.5067 65.6553 35.3603 65.9993 36.2484 65.9987V66.0558Z" fill="#FFB100" stroke="white" stroke-width="0.3"/>
</svg>
