<svg width="80" height="80" viewBox="0 0 80 80" fill="none" xmlns="http://www.w3.org/2000/svg">
<path d="M73.5535 67.9363L73.2695 68.3622C73.1113 68.6022 72.8941 68.7975 72.6388 68.9296C72.3835 69.0617 72.0986 69.126 71.8114 69.1165C71.5241 69.107 71.244 69.024 70.998 68.8754C70.752 68.7267 70.5482 68.5174 70.4062 68.2676C69.223 66.6348 68.1818 64.9783 67.0815 63.3455C66.9631 63.1562 66.833 62.9787 66.6318 62.6948C66.6004 62.8827 66.5806 63.0723 66.5727 63.2627C66.5727 64.5879 66.5727 65.9012 66.5727 67.2264C66.6068 67.4799 66.5826 67.7379 66.5018 67.9807C66.4211 68.2234 66.286 68.4445 66.1068 68.6271C65.9276 68.8097 65.7091 68.949 65.4679 69.0343C65.2267 69.1196 64.9692 69.1488 64.7151 69.1195H14.7373C14.4944 69.1444 14.249 69.1157 14.0184 69.0355C13.7878 68.9552 13.5776 68.8253 13.4027 68.6549C13.2278 68.4845 13.0924 68.2778 13.0061 68.0493C12.9199 67.8209 12.8848 67.5763 12.9034 67.3328C12.9034 66.055 12.9034 64.7772 12.9034 63.4993C12.9034 63.2864 12.9034 63.0734 12.9034 62.7184C12.7022 62.9787 12.5839 63.1207 12.4774 63.2745C11.4007 64.8718 10.324 66.4809 9.23551 68.0783C9.13076 68.2977 8.98086 68.4925 8.79562 68.6501C8.61038 68.8076 8.39397 68.9242 8.16055 68.9924C7.92713 69.0605 7.68195 69.0786 7.44106 69.0454C7.20017 69.0123 6.96899 68.9286 6.76265 68.8C6.55528 68.6615 6.3806 68.4794 6.25078 68.2665C6.12097 68.0536 6.03913 67.8149 6.01097 67.5671C5.98281 67.3193 6.00901 67.0684 6.08775 66.8317C6.16648 66.5951 6.29585 66.3785 6.46685 66.197C16.729 50.9733 27.007 35.7418 37.3007 20.5024C37.4653 20.3233 37.5567 20.0889 37.5567 19.8457C37.5567 19.6024 37.4653 19.3681 37.3007 19.189C36.1175 17.4497 34.9343 15.6395 33.7511 13.8884C33.5685 13.6675 33.4402 13.4068 33.3765 13.1274C33.3128 12.8479 33.3155 12.5574 33.3843 12.2792C33.4677 11.9711 33.6402 11.6945 33.8801 11.484C34.1201 11.2735 34.4168 11.1385 34.7332 11.096C35.0594 11.0287 35.3985 11.0642 35.7036 11.1977C36.0088 11.3312 36.265 11.5561 36.4369 11.8414C37.3953 13.2376 38.3419 14.6456 39.2884 16.0536L39.7972 16.7872L40.3651 15.9589L43.0864 11.8296C43.2597 11.526 43.5251 11.2855 43.8442 11.143C44.1633 11.0004 44.5195 10.9633 44.8612 11.0369C45.208 11.0716 45.5316 11.2268 45.7758 11.4754C46.0201 11.7239 46.1695 12.0502 46.1982 12.3975C46.2095 12.9355 46.0657 13.4653 45.7841 13.9238C44.6009 15.6986 43.4177 17.4734 42.2346 19.1535C42.0739 19.3228 41.9844 19.5473 41.9844 19.7806C41.9844 20.014 42.0739 20.2384 42.2346 20.4077C52.4888 35.5998 62.7431 50.7998 72.9974 66.0077C73.2222 66.339 73.4115 66.6821 73.6245 67.0134L73.5535 67.9363ZM39.738 22.8687C39.5724 23.1172 39.4304 23.2947 39.3003 23.4958C32.2011 34.1445 25.031 44.6867 17.8254 55.2407C16.6471 56.7635 16.074 58.6685 16.2163 60.5887C16.3583 62.2806 16.2163 64.0081 16.2163 65.8065H16.9854C20.3101 65.8065 23.623 65.8065 26.9478 65.8065C27.1718 65.8273 27.3967 65.7782 27.5917 65.6659C27.7866 65.5536 27.9419 65.3836 28.0363 65.1794C31.3571 59.3818 34.6937 53.5961 38.0461 47.8221C38.25 47.4366 38.5369 47.1012 38.8861 46.8401C39.7617 46.2721 40.7201 46.6389 41.3353 47.7156C44.7035 53.5606 48.0716 59.4094 51.4397 65.2623C51.5182 65.4366 51.6496 65.5819 51.8152 65.6775C51.9809 65.773 52.1724 65.814 52.3626 65.7947H62.5262H63.2243V65.0375C63.2243 62.8131 63.2243 60.5887 63.2243 58.3643C63.2092 57.9443 63.0826 57.5359 62.8575 57.1811C55.3088 45.8856 47.7443 34.6257 40.164 23.4012C40.0457 23.2237 39.9037 23.058 39.738 22.8687ZM47.8902 65.7592C45.157 61.0265 42.483 56.3529 39.738 51.561L31.5859 65.7592H47.8902Z" fill="#FFB100" stroke="white"/>
</svg>
