<svg width="80" height="80" viewBox="0 0 80 80" fill="none" xmlns="http://www.w3.org/2000/svg">
<path d="M67.6065 10.3438C67.5894 8.49005 66.0996 7.05328 64.2325 7.0059C63.5938 6.99263 62.955 7.0059 62.3143 7.0059C61.1543 7.0059 60.7979 7.36983 60.7979 8.53554V20.1245C60.8075 20.3374 60.8037 20.5507 60.7866 20.7632C60.7638 21.051 60.6304 21.3187 60.4145 21.5102C60.1986 21.7018 59.9168 21.8023 59.6284 21.7906C59.0029 21.7489 58.6333 21.3906 58.5347 20.7765C58.5132 20.5643 58.5088 20.3507 58.5215 20.1377C58.5215 16.6311 58.5215 13.1251 58.5215 9.61975C58.5215 7.89866 57.6268 7.01727 55.8868 7.01348H54.2529C52.6019 7.01348 51.7016 7.91193 51.6997 9.55341C51.6997 13.06 51.6997 16.566 51.6997 20.0714C51.6997 21.2466 51.3585 21.7773 50.587 21.7944C49.8156 21.8114 49.4251 21.2598 49.4251 20.0524C49.4251 16.1667 49.4251 12.2816 49.4251 8.39717C49.4251 7.42669 49.0138 7.02485 48.0414 7.01537C47.45 7.01537 46.8567 7.01537 46.2654 7.01537C44.0116 7.02485 42.6071 8.43698 42.6052 10.7115C42.6052 15.1166 42.6052 19.5236 42.6052 23.9287C42.5917 24.7345 42.6635 25.5395 42.8194 26.3302C43.8335 31.0879 46.6255 34.3083 51.2182 35.9384C51.5973 36.0711 51.7281 36.2227 51.7186 36.6302C51.6883 37.9798 51.7092 39.3313 51.7054 40.6808C51.7054 40.8799 51.7793 41.1016 51.4931 41.2116C50.8259 41.4675 50.7349 42.0323 50.7083 42.6597C50.5529 45.7816 50.3691 48.9034 50.206 52.0252C49.9445 57.0387 49.6488 62.0523 49.4479 67.0677C49.4118 67.832 49.5318 68.5956 49.8005 69.312C50.0692 70.0284 50.4809 70.6826 51.0107 71.2347C51.5404 71.7868 52.1771 72.2253 52.8818 72.5233C53.5865 72.8213 54.3445 72.9727 55.1096 72.9683C58.3319 72.9683 60.87 70.3563 60.779 67.0582C60.7145 64.6661 60.5591 62.2778 60.4435 59.8895H60.4283C60.4283 59.7948 60.4132 59.7 60.4075 59.6071C60.108 53.9308 59.8104 48.2545 59.5147 42.5782C59.4844 41.9679 59.3574 41.4409 58.73 41.2021C58.4438 41.0922 58.5234 40.8666 58.5215 40.6695C58.5215 39.3654 58.548 38.0613 58.5063 36.761C58.4893 36.2435 58.6617 36.0445 59.147 35.8815C64.0221 34.2438 67.5003 29.6795 67.5894 24.6338C67.6766 19.8686 67.6311 15.1052 67.6065 10.3438ZM58.4267 68.0401C58.2451 68.8582 57.7687 69.5809 57.0884 70.0703C56.4082 70.5597 55.5715 70.7816 54.7381 70.6937C53.8908 70.6088 53.107 70.2062 52.5443 69.5669C51.9817 68.9276 51.682 68.099 51.7054 67.2478C51.8741 63.0777 52.1015 58.9191 52.3176 54.7566C52.5071 51.1855 52.7194 47.6164 52.8862 44.0453C52.9109 43.5203 53.0644 43.3762 53.5838 43.4008C54.5997 43.4482 55.6214 43.4425 56.6374 43.4008C57.115 43.3819 57.2762 43.4994 57.3008 43.9998C57.4448 47.0743 57.6268 50.1487 57.7955 53.2232C57.841 54.0749 57.8871 54.9259 57.9339 55.7764C58.107 59.1579 58.2789 62.54 58.4494 65.9228C58.4911 66.6204 58.5992 67.3293 58.4267 68.0401ZM56.245 38.8877C56.245 39.5037 56.2317 40.1198 56.245 40.7339C56.245 41.0315 56.1806 41.1869 55.8564 41.1339C55.8331 41.132 55.8097 41.132 55.7863 41.1339C53.9648 41.2002 53.9648 41.2002 53.9648 39.4052C53.9648 38.5996 53.978 37.7959 53.9648 36.9904C53.9648 36.6662 54.0235 36.5165 54.3893 36.562C54.7179 36.6122 55.0521 36.6122 55.3807 36.562C56.1635 36.4141 56.3436 36.7515 56.2564 37.4604C56.223 37.9336 56.2192 38.4084 56.245 38.882V38.8877ZM65.3433 23.9931C65.3186 29.4028 61.3931 33.7226 56.0119 34.2798C50.9206 34.8049 46.1441 31.2281 45.0693 26.0686C44.9406 25.4419 44.8771 24.8035 44.8798 24.1637C44.8798 19.6866 44.8798 15.2089 44.8798 10.7305C44.8798 9.57426 45.909 8.87673 46.9856 9.29563C47.3079 9.42262 47.1449 9.70505 47.1449 9.90786C47.1562 13.4846 47.1354 17.0633 47.16 20.64C47.1523 21.235 47.3013 21.8214 47.5921 22.3405C47.8829 22.8596 48.3052 23.293 48.8166 23.5971C49.328 23.9012 49.9104 24.0653 50.5054 24.0729C51.1003 24.0806 51.6867 23.9314 52.2058 23.6406C53.4056 22.9752 53.9761 21.9062 53.9761 20.5377C53.9761 17.0064 53.9761 13.477 53.9648 9.94577C53.9648 9.44726 54.0368 9.25961 54.6016 9.27288C56.2507 9.31079 56.2507 9.27288 56.2507 10.9125C56.2507 14.1822 56.2374 17.4518 56.2507 20.7215C56.2703 21.5111 56.5633 22.2693 57.0796 22.867C57.5959 23.4647 58.3035 23.8647 59.0818 23.9989C59.8601 24.1331 60.6608 23.9931 61.3475 23.6028C62.0341 23.2126 62.564 22.5962 62.8469 21.8588C63.0099 21.3887 63.0857 20.8928 63.0706 20.3955C63.0706 16.9363 63.082 13.477 63.0517 10.0178C63.0517 9.43779 63.1673 9.25961 63.7719 9.28425C64.9831 9.33922 65.3414 9.65197 65.3414 10.8537C65.3414 13.1283 65.3414 15.4028 65.3414 17.6774C65.3433 19.77 65.3528 21.8797 65.3414 23.9874L65.3433 23.9931Z" fill="#FFB100"/>
<path d="M35.1219 12.3132C30.0287 5.17868 20.7713 5.25071 15.843 12.5028C13.1572 16.4397 12.416 20.8182 13.4434 25.4394C14.5124 30.2558 17.0732 33.969 21.8062 35.8834C22.0791 35.9952 22.1341 36.1545 22.1322 36.4198C22.1208 37.8642 22.1322 39.3085 22.1322 40.7529C22.1322 40.9424 22.1474 41.1168 21.9086 41.2097C21.2793 41.4542 21.1636 41.983 21.1333 42.5896C20.9779 45.7114 20.7978 48.8314 20.6348 51.9532C20.3732 56.9895 20.0662 62.0257 19.8766 67.0639C19.84 67.8285 19.9596 68.5925 20.2281 69.3094C20.4965 70.0263 20.9082 70.6809 21.438 71.2334C21.9678 71.7859 22.6046 72.2247 23.3096 72.523C24.0146 72.8213 24.7729 72.9728 25.5384 72.9683C28.7607 72.9683 31.2987 70.3563 31.2096 67.0601C31.1452 64.6699 30.9898 62.2816 30.876 59.8933H30.8609C30.8609 59.7986 30.8438 59.7038 30.84 59.609C30.538 53.934 30.2398 48.2589 29.9453 42.5839C29.915 41.9774 29.7975 41.4466 29.1682 41.204C28.846 41.0789 28.9559 40.8249 28.954 40.605C28.954 39.2536 28.973 37.904 28.937 36.5544C28.937 36.1128 29.0962 35.9611 29.4791 35.8114C31.3584 35.0686 33.0197 33.863 34.3087 32.3067C38.9678 26.806 39.3185 18.1892 35.1219 12.3132ZM28.9445 67.2933C28.9416 68.1906 28.5852 69.0507 27.9527 69.6871C27.3201 70.3236 26.4622 70.6853 25.5649 70.6937C23.6694 70.707 22.0697 69.1774 22.1436 67.2819C22.3047 63.0929 22.5397 58.9077 22.7577 54.7206C22.9473 51.1742 23.1539 47.6278 23.3264 44.0794C23.351 43.5468 23.5026 43.3667 24.0561 43.3952C25.0475 43.4444 26.0464 43.435 27.0396 43.3952C27.5305 43.3762 27.7239 43.4691 27.7485 44.0245C27.885 47.0989 28.0688 50.1734 28.2375 53.2478C28.2855 54.1223 28.3336 54.9967 28.3816 55.8712C28.5522 59.2072 28.7221 62.5426 28.8915 65.8773C28.9218 66.3455 28.9483 66.8194 28.9445 67.2933ZM26.67 38.429C26.67 38.5466 26.67 38.666 26.67 38.7835C26.67 39.4242 26.651 40.0629 26.67 40.7017C26.6851 41.0467 26.5695 41.1263 26.234 41.1377C24.3878 41.2078 24.3878 41.2173 24.3878 39.3483C24.3878 38.5428 24.3992 37.7372 24.3878 36.9316C24.3878 36.6208 24.4693 36.5298 24.7878 36.5525C25.3943 36.5961 26.2075 36.3535 26.5562 36.6606C26.905 36.9676 26.6472 37.8187 26.6757 38.429H26.67ZM32.1839 31.2888C28.3532 35.3318 22.7236 35.3148 18.8758 31.2869C14.2376 26.4345 14.1049 17.6395 18.5934 12.607C22.6819 8.02947 28.9711 8.20195 32.8094 12.9861C34.7276 15.3763 35.7758 18.5057 35.7682 22.4464C35.6905 25.4071 34.6954 28.6484 32.1896 31.2888H32.1839Z" fill="#FFB100"/>
</svg>
