<svg width="80" height="80" viewBox="0 0 80 80" fill="none" xmlns="http://www.w3.org/2000/svg">
<path d="M73.3466 29.3063C73.102 30.3452 72.7916 31.3674 72.4171 32.3669C71.8008 33.7107 70.8913 34.8994 69.7553 35.8456C68.6194 36.7918 67.2859 37.4714 65.8528 37.8346C64.4197 38.1977 62.9234 38.2352 61.4739 37.9442C60.0245 37.6532 58.6586 37.0411 57.4767 36.153L57.012 35.7902C49.7345 43.045 42.4797 50.3262 35.2476 57.6339C37.9228 62.1115 37.9568 66.487 34.2841 70.3978C32.9987 71.8717 31.2747 72.8949 29.3652 73.3172C27.4557 73.7395 25.4611 73.5387 23.674 72.7443C18.947 70.8966 17.0087 67.0765 17.292 62.0548C16.401 62.1059 15.5078 62.1059 14.6168 62.0548C12.302 61.7507 10.1688 60.6388 8.59383 58.9153C7.0188 57.1918 6.10308 54.9674 6.00819 52.6345C5.9133 50.3017 6.64536 48.0103 8.0752 46.1645C9.50505 44.3188 11.5408 43.0374 13.8234 42.5462C15.0883 42.2542 16.3996 42.2243 17.6765 42.4582C18.9534 42.6922 20.1689 43.1851 21.2482 43.9065C21.5996 44.1219 21.8263 44.2239 22.189 43.9065C29.3002 36.7802 36.4152 29.6577 43.534 22.5389C43.6111 22.4686 43.6831 22.3928 43.7493 22.3122C42.7867 20.7945 42.254 19.0439 42.2081 17.2472C42.1622 15.4506 42.6047 13.6751 43.4886 12.1102C44.1438 10.8727 45.0651 9.79576 46.1863 8.95687C47.3074 8.11798 48.6005 7.53796 49.9726 7.25853C52.0612 6.76592 54.2543 6.98124 56.2072 7.87065C58.183 8.75816 59.815 10.2667 60.8548 12.1668C61.8421 14.005 62.238 16.1031 61.9883 18.1747C63.3154 18.2533 64.6366 18.4123 65.9444 18.6508C67.8144 19.1277 69.5013 20.1476 70.7924 21.5819C72.0835 23.0162 72.921 24.8007 73.1992 26.7104C73.225 26.8348 73.2629 26.9563 73.3126 27.0732L73.3466 29.3063ZM51.8089 9.639C50.4827 9.66612 49.192 10.0723 48.0892 10.8094C46.9865 11.5466 46.1177 12.5841 45.5857 13.7992C44.9957 14.9622 44.7415 16.2667 44.8516 17.5662C44.9617 18.8657 45.4318 20.1088 46.2092 21.156C47.0367 22.3916 47.0367 22.743 45.9711 23.8085L23.2999 46.4797C22.1664 47.6133 21.7923 47.6133 20.5794 46.5931C19.6007 45.7697 18.4229 45.2179 17.1639 44.993C15.9049 44.768 14.6089 44.8777 13.4057 45.3112C12.2024 45.7446 11.1341 46.4866 10.3078 47.4628C9.48154 48.4389 8.9262 49.6151 8.69741 50.8734C8.46863 52.1317 8.57444 53.428 9.00424 54.6326C9.43405 55.8371 10.1728 56.9076 11.1464 57.7369C12.1201 58.5661 13.2945 59.1251 14.5521 59.3577C15.8098 59.5902 17.1064 59.4884 18.3123 59.0622C18.9697 58.8355 19.5932 58.6768 20.1486 59.2436C20.7041 59.8104 20.4774 60.3771 20.3187 61.0233C20.1028 61.7624 19.966 62.5224 19.9106 63.2904C19.848 64.8786 20.3105 66.4433 21.2264 67.7423C22.1423 69.0414 23.4606 70.0025 24.9776 70.4772C26.4869 70.9552 28.1107 70.9295 29.6042 70.4041C31.0977 69.8787 32.3799 68.8821 33.2575 67.5644C34.1351 66.2467 34.5606 64.6794 34.4697 63.0988C34.3789 61.5182 33.7766 60.01 32.7538 58.8015C31.847 57.7246 31.8696 57.2145 32.8558 56.2283C40.4582 48.6259 48.072 41.0197 55.6971 33.4098C56.6946 32.4122 57.2614 32.4122 58.2929 33.4098C59.1221 34.2293 60.1393 34.8335 61.2557 35.1694C62.3721 35.5053 63.5538 35.5628 64.6975 35.3368C66.6051 35.0362 68.3151 33.9901 69.4513 32.4286C70.5876 30.8672 71.057 28.9184 70.7564 27.0108C70.4558 25.1033 69.4097 23.3933 67.8482 22.257C66.2868 21.1207 64.338 20.6513 62.4304 20.9519C61.7684 21.0834 61.1138 21.2499 60.4693 21.4507C60.2483 21.5217 60.0122 21.5319 59.7859 21.4801C59.5595 21.4283 59.3513 21.3165 59.1831 21.1565C59.015 20.9964 58.893 20.794 58.8301 20.5705C58.7672 20.347 58.7657 20.1107 58.8257 19.8864C58.8779 19.6527 58.9422 19.4219 59.0184 19.1949C59.3741 18.0778 59.4568 16.8916 59.2595 15.7359C59.0623 14.5802 58.5908 13.4886 57.8847 12.5527C57.1786 11.6167 56.2584 10.8637 55.2013 10.3568C54.1441 9.84981 52.9808 9.60368 51.8089 9.639Z" fill="#FFB100" stroke="white" stroke-width="0.5"/>
<path d="M28.0155 47.976C27.775 48.0092 27.5299 47.9763 27.3066 47.8808C27.0834 47.7853 26.8903 47.6308 26.7482 47.4339C26.606 47.237 26.5202 47.0051 26.4998 46.7631C26.4795 46.5211 26.5253 46.2782 26.6326 46.0603C26.7536 45.8556 26.9024 45.6687 27.0747 45.5048C28.9677 43.6005 30.8381 41.7074 32.7425 39.837C33.045 39.523 33.4442 39.3194 33.876 39.2589C34.1016 39.2597 34.3228 39.3211 34.5165 39.4367C34.7102 39.5523 34.8692 39.7179 34.977 39.916C35.0848 40.1142 35.1373 40.3377 35.1291 40.5631C35.1208 40.7885 35.0522 41.0075 34.9302 41.1973C34.8008 41.3957 34.6487 41.5784 34.4768 41.7414C32.6178 43.6156 30.755 45.4746 28.8884 47.3185C28.6159 47.5613 28.324 47.7812 28.0155 47.976Z" fill="#FFB100" stroke="white" stroke-width="0.5"/>
<path d="M37.9795 37.706C37.984 37.8805 37.9537 38.0542 37.8904 38.217C37.8271 38.3797 37.7319 38.5282 37.6106 38.6538C37.4892 38.7793 37.3441 38.8795 37.1836 38.9484C37.0231 39.0172 36.8505 39.0534 36.6759 39.0549C36.3346 39.0524 36.0071 38.9196 35.7606 38.6836C35.514 38.4475 35.367 38.1262 35.3497 37.7853C35.3764 37.4416 35.5265 37.1192 35.7724 36.8775C36.0182 36.6358 36.3432 36.4912 36.6873 36.4704C37.0196 36.4728 37.3384 36.6021 37.5786 36.8317C37.8188 37.0614 37.9622 37.3741 37.9795 37.706Z" fill="#FFB100" stroke="white" stroke-width="0.5"/>
</svg>
