<svg width="80" height="80" viewBox="0 0 80 80" fill="none" xmlns="http://www.w3.org/2000/svg">
<path d="M9.31199 64.9892C6.93082 61.3748 5.81318 57.0737 6.13349 52.7573C6.4538 48.4408 8.19403 44.3518 11.0826 41.1284C13.9712 37.905 17.8456 35.7285 22.1012 34.9386C26.3569 34.1487 30.7543 34.7898 34.6072 36.7619L31.9182 29.029H28.8797C28.2702 29.0645 27.6599 28.9752 27.0862 28.7664C26.5125 28.5576 25.9875 28.2338 25.5434 27.8148C25.0993 27.3959 24.7455 26.8906 24.5037 26.33C24.2619 25.7695 24.1371 25.1654 24.1371 24.5549C24.1371 23.9444 24.2619 23.3403 24.5037 22.7797C24.7455 22.2191 25.0993 21.7138 25.5434 21.2949C25.9875 20.8759 26.5125 20.5521 27.0862 20.3434C27.6599 20.1346 28.2702 20.0452 28.8797 20.0807H39.727C40.3365 20.0452 40.9468 20.1346 41.5205 20.3434C42.0942 20.5521 42.6192 20.8759 43.0633 21.2949C43.5074 21.7138 43.8612 22.2191 44.103 22.7797C44.3448 23.3403 44.4696 23.9444 44.4696 24.5549C44.4696 25.1654 44.3448 25.7695 44.103 26.33C43.8612 26.8906 43.5074 27.3959 43.0633 27.8148C42.6192 28.2338 42.0942 28.5576 41.5205 28.7664C40.9468 28.9752 40.3365 29.0645 39.727 29.029H39.1345L42.5528 39.0104L48.6297 37.1113C51.6682 36.139 54.7067 35.1515 57.8819 34.1944C58.0832 34.1653 58.2675 34.0651 58.4013 33.9118C58.5351 33.7585 58.6095 33.5623 58.6111 33.3588C59.0669 28.2947 59.5328 23.1901 60.0088 18.045C60.0088 18.045 60.0088 17.9538 60.0088 17.8323C58.763 17.8323 57.4717 17.8323 56.1955 17.8323C55.5609 17.8368 54.9394 17.6511 54.4114 17.2991C53.8833 16.947 53.4729 16.4448 53.233 15.8573C52.9546 15.2996 52.8465 14.6724 52.9222 14.0537C52.9978 13.4351 53.2539 12.8524 53.6584 12.3782C53.9642 11.9887 54.3538 11.6731 54.7983 11.4548C55.2427 11.2365 55.7307 11.1211 56.2259 11.1173C58.4895 11.1173 60.7836 11.1173 63.0169 11.1173C63.2438 11.118 63.4681 11.0679 63.6731 10.9707C63.8782 10.8734 64.0589 10.7314 64.2019 10.5551C65.3413 9.4461 66.5111 8.30668 67.6657 7.15206C67.9694 6.80346 68.3418 6.52134 68.7596 6.32337C69.1774 6.12541 69.6316 6.01586 70.0937 6.0016C70.5558 5.98734 71.0159 6.06866 71.4451 6.24049C71.8743 6.41231 72.2634 6.67093 72.588 7.00014C72.9084 7.33106 73.1582 7.72356 73.3224 8.15388C73.4867 8.5842 73.5618 9.04337 73.5433 9.50359C73.5249 9.9638 73.4132 10.4155 73.215 10.8313C73.0169 11.247 72.7364 11.6183 72.3905 11.9225C70.6434 13.6696 68.8811 15.4015 67.1644 17.1638C66.9032 17.4504 66.7385 17.8117 66.6934 18.1969C66.1769 23.575 65.6705 28.953 65.1742 34.3311L63.6549 50.1311C63.3106 53.8685 62.9561 57.6007 62.5915 61.3279C62.5484 61.5056 62.567 61.6926 62.6443 61.8583C62.7216 62.0239 62.853 62.1584 63.0169 62.2394C64.3994 63.0598 65.7515 63.9258 67.134 64.7462C67.3882 64.8873 67.6819 64.9407 67.9696 64.8981C68.5972 64.7865 69.2414 64.8114 69.8585 64.9713C70.4756 65.1311 71.051 65.4221 71.5455 65.8243C72.0401 66.2265 72.4421 66.7306 72.7242 67.3022C73.0064 67.8739 73.162 68.4996 73.1805 69.1367C73.1805 69.9268 73.1805 70.7168 73.1805 71.5068C73.1888 71.8057 73.1364 72.1032 73.0267 72.3814C72.917 72.6596 72.7522 72.9127 72.5422 73.1256C72.3322 73.3385 72.0813 73.5067 71.8046 73.6201C71.5279 73.7335 71.2311 73.7898 70.9321 73.7856C69.4128 73.7856 67.8936 73.7856 66.4503 73.7856C66.1578 73.7856 65.8681 73.7277 65.598 73.6153C65.3279 73.5029 65.0827 73.3382 64.8765 73.1306C64.6703 72.923 64.5073 72.6767 64.3967 72.4058C64.2861 72.1349 64.2302 71.8449 64.2322 71.5523C64.2639 71.3729 64.2402 71.1881 64.1642 71.0226C64.0882 70.857 63.9635 70.7185 63.8069 70.6256C59.9278 68.2556 56.0638 65.8704 52.2151 63.47L52.0176 63.3789C51.2428 63.9562 50.4984 64.5942 49.7692 65.0804C47.2898 66.7298 44.2604 67.3357 41.3374 66.7667C41.1764 66.717 41.0041 66.718 40.8437 66.7697C40.6833 66.8213 40.5428 66.9211 40.4411 67.0554C38.554 69.2756 36.1861 71.0369 33.5169 72.2057C30.8477 73.3744 27.9474 73.9199 25.036 73.8008C21.7596 73.7202 18.5606 72.7882 15.7535 71.0966L15.0547 70.6864C15.0547 71.0662 15.0547 71.37 15.0547 71.6587C15.0392 72.2245 14.8065 72.7627 14.4048 73.1615C14.0031 73.5604 13.4633 73.7893 12.8974 73.8008C11.3781 73.8008 9.76776 73.8008 8.21814 73.8008C7.69422 73.8115 7.18529 73.6256 6.79162 73.2797C6.39794 72.9338 6.14806 72.4531 6.09121 71.9321C5.9696 70.796 5.9696 69.65 6.09121 68.5139C6.44064 66.8427 7.35218 65.9008 9.31199 64.9892ZM24.003 53.5038C24.0106 53.6455 24.0106 53.7875 24.003 53.9292C23.8805 54.8376 24.0854 55.7598 24.5809 56.5309C25.0763 57.3019 25.8301 57.8715 26.7072 58.1375C29.1835 59.1706 31.5839 60.3556 34.0299 61.4342C36.1103 62.4645 38.2513 63.3676 40.4411 64.1385C41.7147 64.5949 43.0714 64.773 44.4197 64.6607C45.768 64.5484 47.0766 64.1484 48.2572 63.4875C49.4378 62.8267 50.463 61.9204 51.2637 60.8298C52.0644 59.7392 52.6219 58.4895 52.8988 57.1652C53.4575 55.0409 53.5251 52.8172 53.0963 50.6629C52.8702 49.1711 52.3032 47.7514 51.4393 46.5144C50.5754 45.2773 49.4379 44.2561 48.1152 43.53C46.7924 42.804 45.3201 42.3927 43.8127 42.3282C42.3052 42.2637 40.8031 42.5476 39.4232 43.1579C34.9414 45.1025 30.5205 47.1838 26.0843 49.2348C25.4663 49.4982 24.9426 49.9425 24.5819 50.5092C24.2213 51.076 24.0406 51.7386 24.0637 52.41L24.003 53.5038ZM32.8449 43.6592C30.3258 41.8814 27.2433 41.0869 24.1787 41.4255C21.1141 41.7642 18.2794 43.2126 16.2093 45.4975C15.0149 46.7856 14.0979 48.3053 13.5152 49.9625C12.9325 51.6196 12.6965 53.3788 12.8218 55.1309C12.9472 56.8831 13.4312 58.5908 14.2439 60.1481C15.0566 61.7054 16.1806 63.0791 17.5462 64.184C19.8671 66.1068 22.8006 67.1336 25.814 67.0778C28.8274 67.0221 31.7209 65.8875 33.9691 63.8802L33.3311 63.5915L25.2639 59.915C24.4789 59.6081 23.7771 59.1209 23.215 58.4928C22.6529 57.8647 22.2463 57.1133 22.028 56.2992C21.5724 54.4635 21.5724 52.5442 22.028 50.7085C22.2403 49.902 22.6399 49.1571 23.1943 48.5341C23.7486 47.9111 24.4421 47.4277 25.2184 47.1231L32.8449 43.6592ZM38.3749 65.8704C37.9184 65.6926 37.4721 65.4897 37.038 65.2627C36.8258 65.1131 36.5645 65.0503 36.3075 65.087C36.0505 65.1237 35.8173 65.2572 35.6555 65.4602C34.0153 66.981 32.0454 68.1015 29.9 68.7341C27.7545 69.3666 25.4918 69.4941 23.2889 69.1064C19.5614 68.4998 16.1965 66.5185 13.8577 63.5533C11.5189 60.5881 10.376 56.8542 10.6544 53.088C10.9329 49.3217 12.6124 45.7964 15.3617 43.2074C18.1111 40.6183 21.7308 39.1534 25.507 39.1015C28.8565 39.0616 32.1252 40.1299 34.8047 42.14C34.9015 42.2246 35.0154 42.2873 35.1386 42.324C35.2618 42.3607 35.3914 42.3705 35.5188 42.3527C36.172 42.1248 36.7797 41.7906 37.4178 41.5019C34.9118 39.1582 31.7657 37.6124 28.3792 37.0609C24.9927 36.5095 21.5186 36.9772 18.3986 38.4047C15.2785 39.8322 12.6533 42.1551 10.8564 45.0781C9.05959 48.0011 8.17229 51.3924 8.30729 54.8208C8.44228 58.2493 9.59348 61.5603 11.6146 64.333C13.6357 67.1056 16.4355 69.2149 19.6581 70.3927C22.8808 71.5704 26.3808 71.7636 29.7135 70.9475C33.0462 70.1315 36.061 68.3431 38.3749 65.8096V65.8704ZM62.2117 17.8778C62.2117 18.0146 62.2117 18.1209 62.2117 18.2425C61.7103 23.6509 61.1938 29.0442 60.6924 34.4527C60.6924 35.425 60.419 35.7288 59.5682 35.9719L51.3188 38.5698L46.0774 40.2258C47.0345 40.6056 47.9309 40.9854 48.8424 41.3044C49.1762 41.4348 49.5416 41.4613 49.8907 41.3804C52.7165 40.5296 55.527 39.6181 58.3376 38.7369C59.6594 38.3267 60.2671 38.7369 60.1455 40.2561C59.5581 46.6369 58.9453 53.043 58.3072 59.4744C58.1705 60.9937 57.4413 61.3431 56.1195 60.5379L54.4636 59.5352L53.4457 61.5558L64.3234 68.286L65.3413 66.2806C63.9436 65.4146 62.5459 64.5183 61.133 63.6827C60.861 63.5404 60.6385 63.3191 60.4948 63.048C60.3511 62.7768 60.2929 62.4684 60.3278 62.1635C60.6469 58.8667 60.9355 55.57 61.2394 52.2733C61.7255 47.0167 62.2269 41.745 62.7586 36.4884L64.1259 21.8734C64.2474 20.5669 64.3538 19.2452 64.4753 17.9082L62.2117 17.8778ZM34.2882 22.314H28.8797C28.2874 22.314 27.7194 22.5493 27.3005 22.9681C26.8817 23.3869 26.6464 23.955 26.6464 24.5473C26.6464 25.1396 26.8817 25.7076 27.3005 26.1264C27.7194 26.5453 28.2874 26.7805 28.8797 26.7805H39.6663C40.2586 26.7805 40.8266 26.5453 41.2454 26.1264C41.6642 25.7076 41.8995 25.1396 41.8995 24.5473C41.8995 23.955 41.6642 23.3869 41.2454 22.9681C40.8266 22.5493 40.2586 22.314 39.6663 22.314H34.2882ZM60.662 15.599C62.1813 15.599 63.5942 15.599 65.0678 15.599C65.3541 15.5934 65.6289 15.4856 65.8426 15.2951C67.5138 13.5936 69.1546 12.0744 70.8105 10.3424C70.9425 10.245 71.0526 10.1208 71.1335 9.97804C71.2144 9.83527 71.2643 9.67707 71.2801 9.51373C71.2958 9.35039 71.277 9.18556 71.2249 9.02995C71.1728 8.87434 71.0886 8.73144 70.9776 8.61052C70.5067 8.10918 69.823 8.16995 69.2153 8.77764C67.8632 10.1146 66.5263 11.4363 65.2046 12.7884C65.0244 12.9847 64.8027 13.1384 64.5557 13.2383C64.3086 13.3381 64.0425 13.3817 63.7765 13.3657H56.3626C55.5119 13.3657 55.0409 13.7607 55.0409 14.4596C55.0409 15.1584 55.5119 15.599 56.393 15.599H60.662ZM51.6682 43.2186C51.7199 43.3155 51.781 43.4071 51.8505 43.4921C53.4578 45.212 54.6205 47.2987 55.2375 49.5705C55.8544 51.8423 55.9069 54.2304 55.3903 56.5271C55.2384 57.469 55.2232 57.469 56.2867 57.864L57.8059 41.274L51.6682 43.2186ZM40.6082 40.3929L36.9164 29.4088C36.8809 29.3323 36.8281 29.2651 36.7622 29.2123C36.6963 29.1596 36.6191 29.1229 36.5366 29.105C35.853 29.105 35.1693 29.105 34.4097 29.105C35.2605 31.5813 36.1112 33.9361 36.8557 36.3365C37.1992 37.9038 38.0807 39.3014 39.3472 40.2865C39.7422 40.5448 40.0613 40.7271 40.5474 40.3929H40.6082ZM70.9928 71.5219C70.9928 70.656 70.9928 69.8204 70.9928 69C70.9252 68.485 70.6777 68.0104 70.294 67.6601C69.9104 67.3099 69.4154 67.1064 68.8963 67.0858C68.3668 67.0396 67.8393 67.1934 67.4175 67.5167C66.9958 67.8401 66.7103 68.3096 66.6174 68.8329C66.5566 69.7282 66.5566 70.6266 66.6174 71.5219H70.9928ZM12.791 71.5219C12.791 71.3244 12.791 71.2181 12.791 71.0966C12.9247 70.4428 12.87 69.7644 12.6334 69.1405C12.3967 68.5166 11.9878 67.9726 11.4541 67.5719C11.2402 67.3468 10.9624 67.1925 10.6582 67.1301C10.354 67.0676 10.0379 67.0998 9.75256 67.2225C9.40808 67.3247 9.09897 67.5211 8.86008 67.7895C8.62119 68.0579 8.462 68.3877 8.40045 68.7417C8.34726 69.6576 8.34726 70.5757 8.40045 71.4916L12.791 71.5219Z" fill="#FFB100" stroke="white" stroke-width="0.5"/>
<path d="M38.6028 52.5316C40.0157 49.0221 42.3401 47.5485 45.3634 48.1866C46.636 48.4823 47.765 49.2144 48.5541 50.2557C49.3432 51.2971 49.7426 52.582 49.683 53.8872C49.6235 55.1924 49.1086 56.4355 48.2279 57.4007C47.3473 58.3658 46.1563 58.9921 44.862 59.1706C43.4573 59.3425 42.0392 58.9825 40.8865 58.1616C39.7338 57.3406 38.93 56.1181 38.6332 54.7344C37.5393 54.7344 36.4303 54.7344 35.3212 54.7344C35.2174 54.7583 35.1195 54.8029 35.0333 54.8655C34.9472 54.9282 34.8746 55.0076 34.8199 55.0991C34.5329 55.6772 34.0847 56.1599 33.5293 56.4888C32.9739 56.8177 32.3352 56.9788 31.6903 56.9525H29.533C28.6835 56.8953 27.8875 56.5175 27.3061 55.8955C26.7246 55.2736 26.4012 54.454 26.4012 53.6026C26.4012 52.7512 26.7246 51.9316 27.3061 51.3097C27.8875 50.6878 28.6835 50.3099 29.533 50.2527C30.2774 50.2527 31.0522 50.2527 31.7662 50.2527C32.3898 50.2366 33.0054 50.3962 33.5426 50.7132C34.0799 51.0302 34.5172 51.4918 34.8047 52.0454C34.911 52.2277 35.1541 52.4556 35.3364 52.4556C36.4759 52.5467 37.5241 52.5316 38.6028 52.5316ZM41.1095 54.7648C41.3298 55.4854 41.7992 56.1042 42.4337 56.5106C43.0683 56.9169 43.8267 57.0843 44.5734 56.9829C45.4059 56.88 46.1698 56.4692 46.7146 55.8313C47.2594 55.1935 47.5457 54.3747 47.5172 53.5364C47.4886 52.698 47.1472 51.9006 46.5602 51.3014C45.9732 50.7021 45.1831 50.3442 44.3455 50.2983C42.8263 50.1919 41.1551 51.4225 41.1399 52.5316H42.9478C44.7101 52.5316 45.2418 52.7746 45.257 53.6254C45.2722 54.4762 44.7253 54.7648 42.9782 54.7648H41.1095ZM30.7332 52.5316C30.3334 52.5088 29.9327 52.5088 29.533 52.5316C29.2631 52.5633 29.0143 52.693 28.8338 52.896C28.6532 53.0991 28.5535 53.3613 28.5535 53.633C28.5535 53.9047 28.6532 54.1669 28.8338 54.37C29.0143 54.573 29.2631 54.7027 29.533 54.7344C30.323 54.7344 31.113 54.7344 31.903 54.7344C32.1864 54.7265 32.4553 54.6073 32.6515 54.4025C32.8477 54.1978 32.9553 53.9241 32.9512 53.6406C32.9556 53.3581 32.8505 53.0849 32.6579 52.8782C32.4653 52.6714 32.2003 52.5472 31.9182 52.5316C31.5235 52.5088 31.1278 52.5088 30.7332 52.5316Z" fill="#FFB100" stroke="white" stroke-width="0.5"/>
</svg>
