<svg width="80" height="80" viewBox="0 0 80 80" fill="none" xmlns="http://www.w3.org/2000/svg">
<path d="M7 59.3843C7.24042 58.098 7.39669 56.7998 7.72125 55.5376C8.75002 51.3358 10.9267 47.5027 14.0081 44.4665C16.268 42.1946 18.5399 39.9347 20.8119 37.6627C21.449 37.0256 21.8937 37.0256 22.5308 37.6627C24.935 40.0669 27.3392 42.471 29.6351 44.767L49.7819 24.6322C49.4814 24.3677 49.0246 24.0312 48.5799 23.6345C47.1147 22.1672 46.2917 20.1785 46.2917 18.1049C46.2917 16.0314 47.1147 14.0426 48.5799 12.5754C50.7436 10.3635 52.9434 8.18778 55.1192 6H55.9125L73.2946 23.382C74.2322 24.3197 74.2322 24.5841 73.2946 25.5097L67.6088 31.2436C66.8738 32.0237 65.9871 32.6452 65.0031 33.0701C64.0191 33.4949 62.9586 33.7141 61.8869 33.7141C60.8151 33.7141 59.7546 33.4949 58.7707 33.0701C57.7867 32.6452 56.9 32.0237 56.165 31.2436C55.8404 30.9191 55.5399 30.5705 55.2875 30.294L35.2007 50.3326L35.5734 50.7413C37.8012 52.9532 40.0211 55.173 42.2329 57.4008C42.9421 58.1101 42.9541 58.5308 42.2329 59.216C39.6003 61.8245 37.112 64.6013 34.2992 67.0054C26.9905 73.2442 18.6722 74.5785 9.69265 71.2728C9.45676 71.1922 9.24279 71.058 9.06757 70.8807C8.89236 70.7034 8.76068 70.4879 8.68291 70.2511C7.86502 68.1864 7.33905 66.0178 7.12021 63.8079C7.12021 63.6396 7.03606 63.4713 7 63.303V59.3843ZM21.6894 39.4298C21.5211 39.586 21.4009 39.6822 21.3047 39.7904C19.2372 41.858 17.1095 43.8534 15.114 45.9931C8.97141 52.6045 7.3486 60.2257 10.1254 68.8326C10.1925 69.0906 10.3288 69.3254 10.5194 69.5118C10.71 69.6982 10.9478 69.8291 11.2073 69.8904C19.754 72.6552 27.3632 71.0324 33.9626 64.9258C36.1384 62.9064 38.1699 60.7426 40.2615 58.651C40.3386 58.5713 40.4108 58.487 40.4779 58.3986L33.6981 51.6309H33.638C32.6884 52.5805 31.7508 53.5542 30.7651 54.4918C30.3719 54.8665 29.9265 55.1824 29.4428 55.4294C28.6482 55.7766 27.7565 55.8319 26.9252 55.5855C26.0938 55.3392 25.3761 54.8071 24.8989 54.0831C24.4126 53.4009 24.1789 52.5706 24.2382 51.7348C24.2974 50.8991 24.6458 50.11 25.2235 49.5032C26.2813 48.4093 27.3993 47.3755 28.4931 46.3057L28.1566 45.933L21.6894 39.4298ZM55.4798 8.29597L55.0831 8.64457L50.2027 13.549C49.551 14.1133 49.0284 14.811 48.6701 15.595C48.3119 16.3791 48.1265 17.2309 48.1265 18.0929C48.1265 18.9549 48.3119 19.8067 48.6701 20.5908C49.0284 21.3748 49.551 22.0725 50.2027 22.6368L57.4151 29.8492C57.9791 30.4868 58.6721 30.9972 59.4482 31.3469C60.2242 31.6965 61.0657 31.8773 61.9169 31.8773C62.7681 31.8773 63.6096 31.6965 64.3857 31.3469C65.1618 30.9972 65.8547 30.4868 66.4187 29.8492C68.1016 28.1783 69.7725 26.4834 71.4554 24.8005C71.5636 24.6923 71.6598 24.5481 71.7199 24.488L55.4798 8.29597ZM53.881 28.9837L51.0321 26.1468C50.9074 26.3599 50.7581 26.5575 50.5873 26.7358L27.0507 50.2365C25.9447 51.3424 25.8486 52.4363 26.666 53.3018C27.4834 54.1672 28.6374 54.047 29.7433 52.9411L53.28 29.4165C53.4684 29.2563 53.6694 29.1116 53.881 28.9837Z" fill="#FFB100"/>
<path d="M12.6377 61.2956C12.9022 59.781 13.1426 58.1702 13.4552 56.5714C13.5994 55.8382 14.0923 55.5136 14.6572 55.6699C15.2222 55.8261 15.4386 56.319 15.2342 57.0643C14.4794 59.7397 14.438 62.566 15.114 65.2624C15.2943 66.0318 15.114 66.4645 14.4889 66.6208C13.8639 66.7771 13.4672 66.4405 13.2869 65.6832C13.0705 64.2407 12.8782 62.8102 12.6377 61.2956Z" fill="#FFB100"/>
<path d="M50.96 18.0208C50.9726 17.186 51.3087 16.3887 51.8976 15.7969C52.8472 14.8353 53.7969 13.8736 54.7585 12.924C54.8455 12.795 54.9627 12.6894 55.1 12.6164C55.2373 12.5434 55.3904 12.5052 55.5459 12.5052C55.7014 12.5052 55.8545 12.5434 55.9918 12.6164C56.1291 12.6894 56.2463 12.795 56.3333 12.924L67.0197 23.6104C67.5847 24.1754 67.5727 24.6082 67.0197 25.1852C66.0821 26.1348 65.1445 27.0844 64.1949 27.998C63.8987 28.3067 63.5431 28.5523 63.1496 28.7201C62.7561 28.8879 62.3327 28.9744 61.9049 28.9744C61.4771 28.9744 61.0537 28.8879 60.6602 28.7201C60.2667 28.5523 59.9111 28.3067 59.6149 27.998C57.0425 25.4616 54.4941 22.8892 51.9337 20.3288C51.3178 19.7177 50.9679 18.8883 50.96 18.0208ZM55.4558 14.7511L53.4122 16.8548C53.2139 16.9863 53.0511 17.165 52.9386 17.3747C52.826 17.5845 52.7671 17.8188 52.7671 18.0568C52.7671 18.2949 52.826 18.5292 52.9386 18.739C53.0511 18.9487 53.2139 19.1273 53.4122 19.2589C54.422 20.2807 55.4317 21.2904 56.4535 22.3002L60.7449 26.6036C61.382 27.2287 62.1032 27.409 62.6682 26.8921C63.5337 26.1108 64.279 25.2092 65.0724 24.3798L55.4558 14.7511Z" fill="#FFB100"/>
</svg>
