<svg width="80" height="80" viewBox="0 0 80 80" fill="none" xmlns="http://www.w3.org/2000/svg">
<path d="M47.9599 64.4457C47.6289 64.2304 47.314 63.9912 47.0177 63.7301C37.2456 53.9581 27.4696 44.1821 17.6897 34.4021C17.0335 33.8666 16.5468 33.1523 16.2885 32.3458C16.0302 31.5392 16.0115 30.675 16.2346 29.858C16.4536 29.1419 16.8329 28.4852 17.3438 27.9378C22.4166 22.7934 27.5054 17.6807 32.6101 12.5999C32.7474 12.4075 32.9302 12.2521 33.1423 12.1475C33.3543 12.043 33.5889 11.9926 33.8252 12.0009C34.0615 12.0091 34.292 12.0758 34.4962 12.1949C34.7004 12.314 34.8719 12.4818 34.9954 12.6834C35.8481 13.6014 36.4524 14.7218 36.7508 15.9387C37.0493 17.1555 37.0321 18.4284 36.701 19.6367C36.5023 20.268 36.4937 20.9438 36.676 21.5799C36.8584 22.2161 37.2238 22.7846 37.7267 23.2148C39.3458 25.122 41.5309 26.4631 43.9644 27.0433C46.0489 27.4454 48.2071 27.1782 50.1306 26.28C51.681 25.5763 52.1462 25.7671 52.826 27.3534C55.5334 33.7342 58.2646 40.1031 60.9362 46.5078C61.1654 47.1733 61.6017 47.7477 62.1813 48.147C62.7608 48.5463 63.4531 48.7493 64.1565 48.7262C65.4843 48.6944 66.8044 48.938 68.0334 49.4419C69.2624 49.9457 70.3736 50.6988 71.297 51.6535C72.2204 52.6083 72.9359 53.7441 73.3984 54.9892C73.8609 56.2343 74.0604 57.5618 73.9842 58.8878C74.0272 60.0662 73.9433 61.2458 73.7337 62.4063C73.3783 63.9019 72.5142 65.2275 71.2894 66.1565C70.0645 67.0855 68.555 67.56 67.0189 67.499C60.8289 67.499 54.6389 67.499 48.4489 67.499H20.898C20.5406 67.5228 20.182 67.5228 19.8245 67.499C19.5208 67.4807 19.2355 67.3471 19.0271 67.1253C18.8187 66.9036 18.7029 66.6106 18.7034 66.3063C18.8467 65.7719 19.1714 65.3039 19.6218 64.9824C19.908 64.7678 20.4447 64.8393 20.8145 64.8393H47.7452L47.9599 64.4457ZM28.1852 21.1276C30.1532 22.9643 32.0376 24.9322 32.5505 27.8305C32.8077 29.2063 32.7684 30.6213 32.4352 31.9808C32.102 33.3403 31.4826 34.613 30.6183 35.7141L31.155 36.2985L51.7765 56.9199C52.55 57.715 53.4782 58.3431 54.5038 58.7657C55.5295 59.1882 56.6308 59.3962 57.7399 59.3768H70.2511C70.5373 59.3768 70.8236 59.3768 71.2887 59.3053C71.2234 58.3847 71.1039 57.4687 70.9309 56.5621C70.5634 55.0844 69.7046 53.7755 68.4953 52.8501C67.286 51.9248 65.7981 51.4379 64.2758 51.4694C62.9665 51.5486 61.6685 51.1878 60.5879 50.4444C59.5073 49.7009 58.7064 48.6176 58.3124 47.3666C58.1334 46.8895 57.9188 46.4363 57.6922 45.9115C56.9408 46.2335 56.3206 46.5198 55.6885 46.7464C55.5183 46.8333 55.332 46.8841 55.1412 46.8955C54.9505 46.9068 54.7595 46.8786 54.5802 46.8125C54.4009 46.7464 54.2373 46.6438 54.0996 46.5114C53.9619 46.3789 53.8531 46.2193 53.7802 46.0427C53.7013 45.8623 53.6621 45.667 53.6654 45.4702C53.6687 45.2733 53.7143 45.0795 53.7992 44.9019C53.8841 44.7242 54.0062 44.5669 54.1572 44.4407C54.3083 44.3144 54.4848 44.2222 54.6747 44.1702C55.2949 43.8839 55.8674 43.6215 56.6426 43.3114L55.3545 40.2224L54.3169 40.6518C54.0187 40.783 53.7205 40.9261 53.4104 41.0334C53.2375 41.1276 53.0469 41.1847 52.8507 41.2012C52.6546 41.2177 52.4571 41.1932 52.2709 41.1292C52.0847 41.0653 51.9138 40.9633 51.7692 40.8298C51.6245 40.6963 51.5092 40.5341 51.4306 40.3536C51.1324 39.5903 51.4306 38.8985 52.3847 38.493L54.2572 37.6462L52.9453 34.6287L51.9315 35.0342L51.0251 35.4159C50.8556 35.5206 50.6656 35.5874 50.4679 35.6118C50.2702 35.6363 50.0696 35.6177 49.8798 35.5575C49.6899 35.4973 49.5153 35.3968 49.3679 35.2629C49.2205 35.1289 49.1037 34.9648 49.0255 34.7816C48.9474 34.5984 48.9097 34.4005 48.9151 34.2014C48.9205 34.0023 48.9688 33.8067 49.0567 33.628C49.1447 33.4493 49.2701 33.2916 49.4246 33.1659C49.5791 33.0401 49.7588 32.9492 49.9517 32.8993C50.5599 32.6131 51.1443 32.3507 51.8719 32.0645L50.6792 29.1663H50.381C43.7974 31.3489 38.7405 28.713 34.9597 24.0139C34.4209 23.2396 34.0734 22.3485 33.9459 21.4138C33.8493 20.6483 33.8979 19.8714 34.089 19.1239C34.4044 17.9551 34.2637 16.7102 33.6954 15.6413L28.1852 21.1276ZM20.0869 29.0947C18.4291 30.514 18.3814 31.1938 19.7888 32.6012C29.6085 42.4209 39.4203 52.2406 49.2241 62.0604C50.064 62.9571 51.086 63.6637 52.2216 64.1327C53.3571 64.6017 54.5799 64.8223 55.8077 64.7797C58.038 64.7797 60.2564 64.7797 62.4867 64.7797C64.1923 64.7797 65.8978 64.7797 67.5914 64.7201C68.3277 64.6947 69.0352 64.4275 69.6044 63.9597C70.1736 63.4918 70.5727 62.8494 70.7401 62.1319C66.518 62.1319 62.2959 62.1319 58.0738 62.1319C56.4807 62.1687 54.8977 61.8691 53.4283 61.2525C51.9589 60.636 50.636 59.7164 49.5461 58.5539C44.7754 53.7832 40.0047 49.0125 35.234 44.1702L20.0869 29.0947ZM22.1861 27.0671L28.6623 33.5434C31.1908 30.669 30.177 26.3873 26.1458 23.0717L22.1861 27.0671Z" fill="#FFB100" stroke="white" stroke-width="0.5"/>
<path d="M24.4999 55.4768C22.2815 55.4768 20.0631 55.4768 17.8328 55.4768C16.7475 55.4768 16.175 54.9997 16.1631 54.1291C16.1511 53.2584 16.7355 52.7336 17.8089 52.7336H31.3339C32.3835 52.7336 32.9798 53.2823 32.956 54.1529C32.9321 55.0236 32.3835 55.4768 31.3697 55.4768C29.0798 55.4887 26.7898 55.4768 24.4999 55.4768Z" fill="#FFB100" stroke="white" stroke-width="0.5"/>
<path d="M15.5428 17.9312C14.2667 17.9312 12.9905 17.9312 11.7263 17.9312C10.6886 17.9312 10.14 17.4541 10.1161 16.6193C10.0923 15.7844 10.6886 15.2 11.7382 15.2C14.3502 15.2 16.974 15.2 19.586 15.2C20.6356 15.2 21.22 15.7605 21.1842 16.6312C21.1484 17.5018 20.5879 17.9312 19.5383 17.9312C18.2025 17.9908 16.8667 17.9312 15.5428 17.9312Z" fill="#FFB100" stroke="white" stroke-width="0.5"/>
<path d="M13.8492 40.5921C12.6566 40.5921 11.5593 40.5921 10.4262 40.5921C10.2383 40.6158 10.0475 40.5993 9.86651 40.5436C9.68549 40.4879 9.51837 40.3943 9.37626 40.2691C9.23414 40.144 9.12028 39.99 9.04221 39.8174C8.96415 39.6448 8.92367 39.4577 8.92346 39.2683C8.91319 39.0714 8.94624 38.8746 9.02028 38.6919C9.09432 38.5092 9.20756 38.3449 9.352 38.2107C9.49644 38.0765 9.66856 37.9756 9.85624 37.9152C10.0439 37.8547 10.2426 37.8362 10.4382 37.8609C12.8235 37.8609 15.1373 37.8609 17.4988 37.8609C17.6865 37.8409 17.8762 37.8604 18.0558 37.9184C18.2354 37.9763 18.4008 38.0713 18.5413 38.1973C18.6819 38.3232 18.7944 38.4772 18.8716 38.6494C18.9489 38.8215 18.9891 39.008 18.9897 39.1967C18.9897 40.0435 18.4649 40.5802 17.475 40.5921C16.2704 40.5921 15.0538 40.5921 13.8492 40.5921Z" fill="#FFB100" stroke="white" stroke-width="0.5"/>
<path d="M9.40053 55.4768C8.74456 55.4768 8.08859 55.4768 7.43261 55.4768C7.25133 55.4898 7.06929 55.4657 6.89766 55.4059C6.72602 55.3461 6.56839 55.2519 6.43441 55.1291C6.30043 55.0063 6.19292 54.8574 6.11847 54.6916C6.04401 54.5258 6.00418 54.3466 6.0014 54.1648C5.99279 53.9752 6.02402 53.7858 6.09306 53.6089C6.16211 53.432 6.26744 53.2715 6.40227 53.1378C6.53709 53.0041 6.69844 52.9001 6.8759 52.8326C7.05336 52.765 7.243 52.7354 7.43261 52.7456C8.74456 52.7456 10.0565 52.7456 11.3685 52.7456C11.5508 52.735 11.7333 52.7634 11.9038 52.8287C12.0744 52.8941 12.2291 52.995 12.3577 53.1247C12.4862 53.2544 12.5858 53.4099 12.6496 53.5811C12.7135 53.7522 12.7403 53.9349 12.7281 54.1171C12.7349 54.2985 12.704 54.4794 12.6373 54.6482C12.5706 54.817 12.4696 54.9702 12.3407 55.098C12.2118 55.2258 12.0578 55.3254 11.8884 55.3906C11.719 55.4558 11.5379 55.4852 11.3565 55.4768H9.40053Z" fill="#FFB100" stroke="white" stroke-width="0.5"/>
</svg>
