<svg width="80" height="80" viewBox="0 0 80 80" fill="none" xmlns="http://www.w3.org/2000/svg">
<path d="M47.585 71.5572H68.3665C68.7112 71.5466 69.056 71.5708 69.3958 71.6292C69.5356 71.6464 69.6705 71.6922 69.7919 71.7636C69.9133 71.8351 70.0188 71.9307 70.1018 72.0445C70.1848 72.1584 70.2435 72.2881 70.2743 72.4256C70.3052 72.563 70.3074 72.7054 70.281 72.8438C70.1678 73.2761 69.6943 73.6363 69.3135 73.9451C69.1488 74.0686 68.7988 73.9451 68.5312 73.9451H14.8432C11.5803 73.9348 9.60405 72.0409 9.60405 68.7884C9.60405 53.8224 9.60405 38.853 9.60405 23.8802C9.60405 19.6395 12.3934 16.9016 16.6547 16.881H18.2193V8.79073C18.2193 7.57617 18.5795 7.21591 19.825 7.21591C22.7619 7.21591 25.6954 7.21591 28.6254 7.21591C29.7988 7.21591 30.1694 7.59675 30.1797 8.75986V16.8913C30.5811 16.8913 30.9208 16.8913 31.2604 16.8913C35.6967 16.6031 38.939 19.6807 38.836 24.5287C38.6816 31.8469 38.836 39.1755 38.836 46.4938V47.5231L39.011 47.5746C39.1654 47.307 39.3198 47.0393 39.4536 46.7614L49.4069 26.4843C50.8273 23.6126 53.2153 22.7892 56.1076 24.1993C58.9999 25.6094 61.8511 27.0196 64.7022 28.4606C65.4051 28.7963 65.9777 29.3544 66.3312 30.0485C66.6848 30.7426 66.7996 31.5339 66.6579 32.2998C66.5636 33.0436 66.2274 33.7357 65.701 34.2695C65.1746 34.8033 64.4873 35.1492 63.745 35.2539C62.9306 35.3313 62.1097 35.2039 61.357 34.8834C59.8542 34.2658 58.4235 33.4732 56.9619 32.7527C56.5605 32.5572 56.0973 32.2587 55.8091 32.8248C55.5209 33.3909 56.0253 33.6482 56.4576 33.8541C57.9706 34.6055 59.5455 35.3157 60.9968 36.0979C61.7053 36.4594 62.2743 37.0451 62.615 37.7638C62.9557 38.4825 63.049 39.2937 62.8804 40.071C62.7418 40.8147 62.3661 41.4934 61.8094 42.0055C61.2527 42.5177 60.5451 42.8357 59.7925 42.9119C59.0569 42.953 58.3223 42.8153 57.6516 42.5104C56.1591 41.8723 54.7387 41.0694 53.2565 40.4519C52.9271 40.3078 52.2272 40.3078 52.1242 40.4519C51.7331 41.018 52.2992 41.2547 52.7212 41.4812C54.1622 42.1914 55.593 42.8913 57.0237 43.6118C57.4781 43.8061 57.8882 44.0909 58.2291 44.4487C58.57 44.8066 58.8346 45.23 59.0066 45.6933C59.1787 46.1567 59.2547 46.6501 59.2301 47.1437C59.2054 47.6374 59.0806 48.1208 58.8632 48.5647C58.6459 49.0085 58.3405 49.4035 57.9656 49.7256C57.5907 50.0477 57.1543 50.2902 56.6828 50.4383C56.2112 50.5864 55.7145 50.637 55.2228 50.5871C54.7311 50.5371 54.2547 50.3877 53.8226 50.1478C52.433 49.4891 51.0641 48.7892 49.7054 48.0892C49.2525 47.8731 48.6761 47.379 48.3364 48.0892C47.9968 48.7994 48.7687 48.9333 49.201 49.1185C50.5494 49.8082 51.9184 50.4463 53.3182 51.1771C53.7847 51.3661 54.2071 51.6494 54.5589 52.0093C54.9107 52.3692 55.1844 52.7978 55.3628 53.2684C55.5412 53.739 55.6205 54.2414 55.5956 54.7441C55.5708 55.2467 55.4424 55.7388 55.2184 56.1896C54.9945 56.6403 54.6799 57.0399 54.2943 57.3633C53.9087 57.6867 53.4604 57.927 52.9776 58.0691C52.4948 58.2112 51.9879 58.252 51.4885 58.1889C50.9892 58.1259 50.5083 57.9604 50.0759 57.7028C48.6349 57.0132 47.2042 56.2927 45.7735 55.5825C45.3618 55.3869 44.9089 55.1399 44.6207 55.6854C44.3325 56.231 44.8265 56.4677 45.2177 56.7147C46.6793 57.4455 48.1512 58.1454 49.6025 58.8762C50.0645 59.0689 50.4821 59.3544 50.8292 59.715C51.1763 60.0757 51.4457 60.5038 51.6205 60.9729C51.7953 61.442 51.8718 61.942 51.8454 62.4419C51.819 62.9418 51.6901 63.4309 51.4668 63.8789C51.2435 64.3269 50.9305 64.7243 50.5473 65.0463C50.164 65.3684 49.7187 65.6083 49.2389 65.7511C48.7591 65.8939 48.2551 65.9366 47.7582 65.8765C47.2612 65.8165 46.7819 65.655 46.3499 65.402C44.878 64.6918 43.4267 63.961 41.9651 63.2302C41.5431 63.0243 41.049 62.8287 40.8637 63.4051C40.7917 63.6316 41.1519 64.1462 41.4299 64.3006C42.7062 64.9903 44.0237 65.5975 45.3206 66.246C47.6468 67.4297 48.2644 68.7884 47.585 71.5572ZM36.2628 69.9206L33.9675 68.7884C31.2295 67.4194 30.3958 65.0108 31.7339 62.2729C33.1749 59.3497 34.6262 56.4368 36.0466 53.5033C36.2457 53.0814 36.351 52.6214 36.3554 52.1549C36.3554 48.4186 36.3554 44.6823 36.3554 40.9459V40.0298H12.0229V68.5516C12.0229 70.7234 12.8566 71.5572 15.0284 71.5572H30.859C31.8883 71.5572 32.9176 71.5572 33.9469 71.5572C34.453 71.5769 34.9511 71.4264 35.3616 71.1297C35.7721 70.8331 36.0713 70.4073 36.2113 69.9206H36.2628ZM53.2771 33.3909C53.2458 32.8622 53.351 32.3343 53.5826 31.8581C53.8143 31.3818 54.1645 30.9731 54.5997 30.6712C55.0349 30.3694 55.5404 30.1846 56.0676 30.1345C56.5949 30.0844 57.1262 30.1708 57.6104 30.3853C59.1749 31.0956 60.6983 31.8984 62.2319 32.6498C63.1274 33.0821 63.7964 32.938 64.1567 32.2484C64.517 31.5587 64.2185 30.9309 63.3333 30.4883C60.4924 29.0816 57.6516 27.6783 54.8107 26.2785C54.5496 26.1037 54.252 25.9909 53.9407 25.9489C53.6293 25.9069 53.3125 25.9367 53.0144 26.0361C52.7164 26.1354 52.445 26.3017 52.2211 26.5221C51.9972 26.7425 51.8268 27.0113 51.7228 27.3078C45.7666 39.3505 39.8173 51.4001 33.8748 63.4566C33.7 63.7177 33.5873 64.0153 33.5453 64.3266C33.5033 64.638 33.5331 64.9548 33.6325 65.2529C33.7318 65.5509 33.8981 65.8223 34.1185 66.0462C34.3389 66.2701 34.6077 66.4405 34.9041 66.5445C37.7381 67.9649 40.5755 69.3682 43.4164 70.7543C44.3119 71.1969 44.9912 71.0425 45.3412 70.3632C45.6911 69.6838 45.4132 69.056 44.5177 68.6031C43.0664 67.8723 41.5945 67.1724 40.1432 66.4313C39.7069 66.3084 39.3029 66.091 38.96 65.7944C38.6171 65.4978 38.3438 65.1294 38.1593 64.7153C37.9749 64.3011 37.8839 63.8515 37.8928 63.3982C37.9017 62.945 38.0103 62.4992 38.2109 62.0927C38.4115 61.6861 38.6991 61.3287 39.0534 61.0459C39.4077 60.763 39.8199 60.5616 40.2608 60.456C40.7016 60.3504 41.1604 60.3432 41.6043 60.4348C42.0483 60.5265 42.4667 60.7147 42.8297 60.9863C44.2913 61.6965 45.7426 62.4273 47.2042 63.1478C48.0791 63.5698 48.7893 63.4051 49.1187 62.7361C49.4481 62.0671 49.1187 61.4186 48.2644 60.9657C46.8131 60.2452 45.3412 59.535 43.8899 58.8042C43.4602 58.6742 43.064 58.4521 42.729 58.1534C42.3939 57.8546 42.128 57.4864 41.9498 57.0744C41.7716 56.6623 41.6854 56.2164 41.6972 55.7677C41.7089 55.3189 41.8184 54.8781 42.0179 54.476C42.2175 54.0739 42.5023 53.7201 42.8526 53.4393C43.2028 53.1585 43.6101 52.9575 44.046 52.8502C44.4819 52.7429 44.9359 52.7319 45.3765 52.8181C45.817 52.9042 46.2335 53.0854 46.5969 53.3489C47.9865 54.018 49.3554 54.7179 50.7141 55.4075C51.7434 55.9325 52.5257 55.8192 52.855 55.0884C53.1844 54.3576 52.855 53.7606 51.8257 53.246L47.7086 51.1874C47.2705 51.0667 46.8645 50.8508 46.5195 50.5551C46.1745 50.2594 45.899 49.8912 45.7127 49.4767C45.5264 49.0623 45.4338 48.6119 45.4416 48.1576C45.4494 47.7033 45.5574 47.2563 45.7578 46.8485C45.9582 46.4407 46.2462 46.0821 46.6011 45.7985C46.956 45.5148 47.3692 45.3129 47.8111 45.2072C48.2531 45.1016 48.7129 45.0948 49.1577 45.1873C49.6026 45.2798 50.0216 45.4694 50.3847 45.7424L54.7592 47.8937C55.593 48.3054 56.2723 48.151 56.612 47.5128C56.9516 46.8747 56.6737 46.1439 55.8297 45.7219L51.3729 43.5192C50.9369 43.3947 50.5337 43.1757 50.192 42.8778C49.8502 42.58 49.5782 42.2105 49.3953 41.7957C49.2124 41.3808 49.1231 40.9308 49.1337 40.4776C49.1443 40.0244 49.2546 39.579 49.4568 39.1732C49.6589 38.7674 49.9479 38.4111 50.3033 38.1296C50.6586 37.848 51.0716 37.6482 51.5129 37.5443C51.9542 37.4404 52.413 37.4349 52.8566 37.5283C53.3003 37.6216 53.7179 37.8115 54.0799 38.0845C55.5209 38.7741 56.9413 39.4946 58.3824 40.2048C59.4117 40.6783 60.0189 40.5651 60.4409 39.8652C60.863 39.1652 60.4409 38.5065 59.4734 38.0124C58.0118 37.2919 56.5502 36.5817 55.0989 35.8509C54.5969 35.6503 54.1605 35.314 53.8388 34.8795C53.517 34.445 53.3225 33.9296 53.2771 33.3909ZM12.1052 27.9047V37.4875H36.3246V27.9047H12.1052ZM12.1052 25.3418H36.3554C36.3554 24.5595 36.4069 23.8493 36.3554 23.1494C36.2725 22.1155 35.8023 21.151 35.039 20.4488C34.2757 19.7465 33.2755 19.3583 32.2383 19.3616C26.8722 19.3616 21.5061 19.3616 16.1401 19.3616C15.0622 19.3614 14.0273 19.7838 13.2575 20.5382C12.4877 21.2926 12.0445 22.3188 12.0229 23.3964C12.0126 24.014 12.0332 24.6316 12.0332 25.3418H12.1052ZM27.7505 16.8913V9.68622H20.7513V16.8913C20.9778 16.8913 21.1425 16.953 21.3174 16.953L27.7505 16.8913Z" fill="#FFB100" stroke="white" stroke-width="0.5"/>
<path d="M54.5637 15.0695C54.5657 15.9087 54.3187 16.7296 53.854 17.4283C53.3893 18.127 52.7277 18.6722 51.953 18.9947C51.1783 19.3173 50.3253 19.4027 49.502 19.2402C48.6787 19.0778 47.9221 18.6747 47.328 18.082C46.7339 17.4894 46.329 16.7338 46.1645 15.9109C46.0001 15.088 46.0835 14.2348 46.4041 13.4593C46.7248 12.6838 47.2683 12.0209 47.9659 11.5545C48.6635 11.0881 49.4838 10.8391 50.323 10.8391C51.4459 10.8391 52.523 11.2845 53.318 12.0775C54.113 12.8706 54.561 13.9466 54.5637 15.0695ZM50.323 16.8913C50.6784 16.8893 51.0252 16.7822 51.3198 16.5835C51.6145 16.3848 51.8437 16.1034 51.9788 15.7746C52.1138 15.4459 52.1486 15.0846 52.0788 14.7362C52.009 14.3877 51.8376 14.0677 51.5864 13.8164C51.3351 13.5651 51.0151 13.3938 50.6666 13.3239C50.3182 13.2541 49.9568 13.2889 49.6281 13.424C49.2994 13.559 49.018 13.7883 48.8193 14.0829C48.6206 14.3776 48.5135 14.7244 48.5114 15.0798C48.5101 15.3181 48.556 15.5542 48.6465 15.7746C48.7371 15.995 48.8705 16.1953 49.039 16.3638C49.2075 16.5323 49.4077 16.6657 49.6281 16.7562C49.8485 16.8468 50.0847 16.8927 50.323 16.8913Z" fill="#FFB100" stroke="white" stroke-width="0.5"/>
<path d="M69.7046 56.4368C69.7046 56.8794 69.7046 57.322 69.7046 57.7543C69.6772 58.0479 69.5411 58.3206 69.3231 58.5192C69.1052 58.7177 68.8209 58.8278 68.5261 58.8278C68.2312 58.8278 67.947 58.7177 67.729 58.5192C67.511 58.3206 67.375 58.0479 67.3475 57.7543C67.3064 56.8691 67.3064 55.9839 67.3475 55.0987C67.3472 54.9573 67.376 54.8173 67.4322 54.6875C67.4884 54.5576 67.5707 54.4408 67.674 54.3442C67.7774 54.2476 67.8995 54.1734 68.0328 54.1261C68.1662 54.0788 68.3078 54.0595 68.4489 54.0694C68.5997 54.0461 68.7538 54.0549 68.901 54.0954C69.0482 54.1359 69.1851 54.2072 69.3028 54.3044C69.4204 54.4016 69.5162 54.5227 69.5837 54.6596C69.6511 54.7965 69.6889 54.9462 69.6943 55.0987C69.7201 55.5719 69.7201 56.046 69.6943 56.5192L69.7046 56.4368Z" fill="#FFB100" stroke="white" stroke-width="0.5"/>
<path d="M64.8772 58.835C65.2889 58.835 65.7006 58.835 66.1124 58.835C66.2698 58.8277 66.4269 58.8533 66.5739 58.9102C66.7208 58.9671 66.8542 59.054 66.9657 59.1654C67.0771 59.2768 67.164 59.4103 67.2209 59.5572C67.2778 59.7042 67.3034 59.8613 67.2961 60.0187C67.3168 60.1655 67.3056 60.315 67.2633 60.457C67.2209 60.599 67.1484 60.7302 67.0507 60.8416C66.953 60.9531 66.8323 61.042 66.697 61.1025C66.5617 61.163 66.415 61.1936 66.2668 61.1921C65.3552 61.2539 64.4404 61.2539 63.5288 61.1921C63.3745 61.1953 63.2214 61.1636 63.0809 61.0995C62.9404 61.0355 62.8161 60.9406 62.7173 60.822C62.6184 60.7034 62.5475 60.564 62.5098 60.4143C62.4721 60.2646 62.4686 60.1083 62.4995 59.957C62.4896 59.8159 62.5089 59.6742 62.5562 59.5409C62.6035 59.4076 62.6777 59.2855 62.7743 59.1821C62.8709 59.0788 62.9877 58.9964 63.1176 58.9403C63.2474 58.8841 63.3874 58.8553 63.5288 58.8556C63.9714 58.8556 64.414 58.8556 64.8566 58.8556L64.8772 58.835Z" fill="#FFB100" stroke="white" stroke-width="0.5"/>
<path d="M72.2264 58.8351C72.6381 58.8351 73.0499 58.8351 73.4616 58.8351C73.6111 58.8336 73.7593 58.8624 73.8974 58.9195C74.0355 58.9767 74.1607 59.0611 74.2655 59.1678C74.3702 59.2745 74.4523 59.4011 74.507 59.5403C74.5616 59.6794 74.5877 59.8282 74.5835 59.9776C74.6092 60.1266 74.6018 60.2795 74.5617 60.4254C74.5217 60.5712 74.4499 60.7065 74.3517 60.8214C74.2534 60.9364 74.131 61.0283 73.9931 61.0906C73.8553 61.1529 73.7054 61.1841 73.5542 61.1819C72.6389 61.2333 71.7213 61.2333 70.806 61.1819C70.6537 61.1844 70.5028 61.153 70.3641 61.0901C70.2254 61.0272 70.1024 60.9344 70.0039 60.8182C69.9054 60.702 69.834 60.5654 69.7947 60.4183C69.7554 60.2711 69.7493 60.1171 69.7767 59.9673C69.7711 59.8175 69.7961 59.6681 69.8502 59.5283C69.9043 59.3885 69.9864 59.2612 70.0914 59.1543C70.1965 59.0473 70.3223 58.9629 70.461 58.9062C70.5998 58.8496 70.7487 58.8219 70.8986 58.8248C71.3309 58.8042 71.7838 58.8351 72.2264 58.8351Z" fill="#FFB100" stroke="white" stroke-width="0.5"/>
<path d="M67.3269 63.6419C67.3269 63.261 67.3269 62.8802 67.3269 62.4993C67.3166 62.343 67.3394 62.1862 67.3939 62.0393C67.4484 61.8924 67.5334 61.7586 67.6432 61.6469C67.7531 61.5351 67.8853 61.4478 68.0312 61.3907C68.1772 61.3336 68.3335 61.3081 68.49 61.3157C68.6469 61.2976 68.8057 61.3138 68.9557 61.3632C69.1057 61.4126 69.2431 61.4939 69.3586 61.6015C69.4741 61.7091 69.5648 61.8406 69.6245 61.9867C69.6843 62.1328 69.7116 62.2902 69.7046 62.4479C69.7509 63.305 69.7509 64.164 69.7046 65.0211C69.706 65.1787 69.6735 65.3348 69.6093 65.4787C69.5452 65.6227 69.4509 65.7512 69.3329 65.8556C69.2148 65.96 69.0757 66.0379 68.925 66.0839C68.7743 66.1299 68.6154 66.1431 68.4592 66.1225C68.3101 66.1225 68.1625 66.0928 68.025 66.0351C67.8875 65.9775 67.7629 65.893 67.6585 65.7866C67.554 65.6802 67.4718 65.5541 67.4166 65.4156C67.3615 65.2771 67.3345 65.129 67.3372 64.9799C67.3372 64.5373 67.3372 64.0845 67.3372 63.6419H67.3269Z" fill="#FFB100" stroke="white" stroke-width="0.5"/>
<path d="M8.43071 7.23646C8.4226 7.39596 8.38315 7.5523 8.31462 7.69656C8.24609 7.84081 8.14982 7.97016 8.0313 8.0772C7.79194 8.2934 7.47651 8.40565 7.15438 8.38927C6.83226 8.3729 6.52983 8.22922 6.31364 7.98987C6.09745 7.75051 5.98519 7.43507 6.00157 7.11295C6.03038 6.79901 6.17912 6.50827 6.41684 6.30122C6.65457 6.09416 6.96298 5.98674 7.2779 6.00131C7.59189 6.0198 7.88674 6.15836 8.10135 6.38831C8.31596 6.61825 8.43389 6.92194 8.43071 7.23646Z" fill="#FFB100" stroke="white" stroke-width="0.5"/>
<path d="M24.2201 61.6965C23.2217 61.7105 22.2346 61.4851 21.3414 61.0391C20.4481 60.5931 19.6747 59.9395 19.0861 59.1331C18.4974 58.3267 18.1106 57.3909 17.958 56.4043C17.8053 55.4176 17.8914 54.4087 18.209 53.4621C19.4423 50.1867 21.1334 47.1024 23.2319 44.3014C23.3398 44.1379 23.4865 44.0037 23.6589 43.9109C23.8314 43.818 24.0242 43.7694 24.2201 43.7694C24.4159 43.7694 24.6087 43.818 24.7812 43.9109C24.9536 44.0037 25.1003 44.1379 25.2082 44.3014C27.3455 47.1457 29.0551 50.2875 30.2826 53.6268C30.5695 54.5677 30.6303 55.5631 30.4598 56.5319C30.2893 57.5007 29.8925 58.4156 29.3017 59.202C28.7108 59.9885 27.9426 60.6243 27.0596 61.0578C26.1766 61.4913 25.2037 61.7101 24.2201 61.6965ZM24.2921 47.2864L23.9936 47.1731C22.8511 49.4376 21.6468 51.6712 20.5969 53.9768C20.3164 54.7011 20.252 55.4913 20.4117 56.2515C20.5288 56.7572 20.7454 57.2345 21.0488 57.6556C21.3522 58.0767 21.7365 58.4332 22.1791 58.7043C22.6217 58.9754 23.1138 59.1557 23.6268 59.2347C24.1398 59.3137 24.6633 59.2898 25.167 59.1644C26.1143 58.9424 26.9423 58.37 27.4847 57.5622C28.027 56.7545 28.2433 55.7713 28.0902 54.8105C27.3491 52.0314 25.7331 49.6846 24.2921 47.2658V47.2864Z" fill="#FFB100" stroke="white" stroke-width="0.5"/>
</svg>
