<svg width="80" height="80" viewBox="0 0 80 80" fill="none" xmlns="http://www.w3.org/2000/svg">
<path d="M32.4616 38.7494C32.2475 40.2858 32.046 41.8097 31.8319 43.3462C31.2946 47.3511 30.7446 51.3518 30.1821 55.3484C30.181 55.4984 30.1487 55.6466 30.0873 55.7836C30.0259 55.9205 29.9368 56.0432 29.8255 56.1438C29.7141 56.2445 29.5831 56.3209 29.4407 56.3682C29.2983 56.4156 29.1476 56.4328 28.9982 56.4189C24.6743 56.4189 20.3545 56.4189 16.0389 56.4189C15.8601 56.4408 15.6786 56.4188 15.5102 56.3547C15.3418 56.2907 15.1915 56.1865 15.0724 56.0513C14.9533 55.9161 14.869 55.7539 14.8267 55.5787C14.7845 55.4036 14.7856 55.2207 14.8299 55.0461L16.8072 40.7392C17.5124 35.5421 18.2219 30.3407 18.9356 25.1352C19.6912 19.619 20.4427 14.1028 21.1899 8.58655C21.1899 8.08279 21.3158 7.59162 21.404 7.08786C21.4016 6.93733 21.4309 6.78798 21.4901 6.64955C21.5493 6.51113 21.637 6.38675 21.7476 6.28454C21.8581 6.18233 21.9889 6.10458 22.1316 6.05637C22.2742 6.00816 22.4254 5.99058 22.5753 6.00477H35.5975C36.2776 6.00477 36.5925 6.42037 36.7814 7.02489C37.9988 10.9374 39.2246 14.8542 40.4588 18.7752C42.7342 26.0881 45.0179 33.4011 47.31 40.714C47.34 40.9213 47.4322 41.1146 47.5745 41.2682C47.6878 40.437 47.8138 39.6184 47.9271 38.7494L49.854 24.644C49.8525 24.4848 49.8854 24.3272 49.9503 24.1818C50.0151 24.0365 50.1106 23.9068 50.2301 23.8016C50.3496 23.6965 50.4904 23.6183 50.6428 23.5724C50.7952 23.5265 50.9557 23.514 51.1134 23.5357H64.0224C64.2098 23.5045 64.4021 23.5213 64.5812 23.5848C64.7603 23.6483 64.9203 23.7562 65.0462 23.8985C65.1721 24.0408 65.2598 24.2127 65.301 24.3982C65.3422 24.5837 65.3356 24.7766 65.2818 24.9589L62.8511 42.4142C62.0955 47.9305 61.344 53.4467 60.5968 58.9629C59.9671 63.6227 59.329 68.2825 58.6825 72.9423C58.6771 73.0968 58.6391 73.2484 58.571 73.3872C58.5029 73.5259 58.4062 73.6487 58.2872 73.7474C58.1683 73.8462 58.0298 73.9186 57.8809 73.96C57.7319 74.0014 57.5759 74.0108 57.4231 73.9876C53.1159 73.9876 48.7961 73.9876 44.4764 73.9876C43.7585 73.9876 43.4436 73.572 43.217 72.9423C41.6931 68.018 40.144 63.0937 38.6075 58.182C36.626 51.8766 34.653 45.5796 32.6883 39.2909C32.6883 39.1272 32.575 38.9635 32.512 38.7872L32.4616 38.7494ZM56.6422 71.7459C58.7496 56.3979 60.8487 41.0625 62.9393 25.7397H51.9572C49.875 41.1297 47.7844 56.4734 45.6854 71.771L56.6422 71.7459ZM17.185 54.2149H28.1292L34.4263 8.22132H23.4568C21.3662 23.5483 19.2756 38.8375 17.185 54.2149ZM36.0761 12.2262C36.0005 12.6544 35.9502 12.8685 35.9124 13.0952C35.1064 19.0396 34.2752 24.984 33.4943 30.941C33.223 31.9262 33.1842 32.9609 33.381 33.9636C36.2692 43.0985 39.1365 52.2502 41.9827 61.4187C42.625 63.4841 43.2421 65.5496 43.9726 67.7787C44.0482 67.4009 44.1111 67.212 44.1363 67.0105C44.9549 61.0157 45.7861 55.0209 46.5796 49.0261C46.84 48.0604 46.8745 47.0477 46.6803 46.0665C43.8089 36.9148 40.95 27.7589 38.1038 18.5988C37.4992 16.546 36.8192 14.4932 36.1013 12.2262H36.0761Z" fill="#FFB100" stroke="white" stroke-width="0.5"/>
<path d="M53.2418 54.2527C53.8903 54.2601 54.5221 54.4592 55.0576 54.8249C55.5932 55.1906 56.0086 55.7065 56.2516 56.3078C56.4946 56.909 56.5543 57.5687 56.4233 58.2039C56.2922 58.839 55.9762 59.4211 55.515 59.8771C55.0539 60.333 54.4681 60.6423 53.8316 60.7661C53.195 60.8899 52.536 60.8227 51.9376 60.5728C51.3391 60.3229 50.828 59.9016 50.4685 59.3619C50.1089 58.8222 49.917 58.1882 49.917 57.5397C49.9237 56.6635 50.2773 55.8255 50.9005 55.2094C51.5236 54.5934 52.3655 54.2493 53.2418 54.2527ZM53.1789 56.444C52.9617 56.4492 52.751 56.5187 52.5735 56.6438C52.3959 56.769 52.2596 56.944 52.1818 57.1468C52.1039 57.3496 52.0881 57.5709 52.1364 57.7827C52.1846 57.9945 52.2947 58.1872 52.4526 58.3363C52.6106 58.4853 52.8093 58.5841 53.0235 58.62C53.2377 58.6559 53.4578 58.6274 53.6557 58.538C53.8537 58.4486 54.0206 58.3023 54.1352 58.1179C54.2499 57.9334 54.3072 57.719 54.2997 57.5019C54.2807 57.2168 54.1546 56.9493 53.9468 56.7532C53.7389 56.557 53.4647 56.4466 53.1789 56.444Z" fill="#FFB100" stroke="white" stroke-width="0.5"/>
<path d="M52.1713 63.0308C52.8203 63.0407 53.4518 63.2426 53.9862 63.6109C54.5206 63.9792 54.934 64.4974 55.1743 65.1003C55.4146 65.7032 55.4711 66.3638 55.3365 66.9987C55.202 67.6336 54.8826 68.2145 54.4184 68.6682C53.9543 69.1218 53.3662 69.4279 52.7283 69.5479C52.0905 69.6678 51.4314 69.5962 50.8342 69.3422C50.237 69.0881 49.7283 68.663 49.3723 68.1203C49.0164 67.5776 48.829 66.9416 48.8339 66.2926C48.8388 65.8593 48.9291 65.4312 49.0995 65.0327C49.2699 64.6343 49.5171 64.2733 49.827 63.9704C50.1369 63.6675 50.5035 63.4286 50.9057 63.2674C51.308 63.1062 51.738 63.0258 52.1713 63.0308ZM52.1713 65.2221C51.885 65.2187 51.6087 65.3274 51.4016 65.5252C51.1944 65.7229 51.0729 65.9938 51.0631 66.28C51.0561 66.5677 51.1612 66.8468 51.3563 67.0583C51.5514 67.2699 51.8211 67.3972 52.1084 67.4135C52.2539 67.4143 52.3982 67.3865 52.533 67.3315C52.6677 67.2766 52.7904 67.1957 52.8939 67.0933C52.9974 66.991 53.0797 66.8693 53.1362 66.7352C53.1926 66.601 53.2221 66.457 53.2229 66.3115C53.2238 66.166 53.1959 66.0217 53.141 65.8869C53.0861 65.7521 53.0051 65.6295 52.9028 65.526C52.8005 65.4225 52.6788 65.3402 52.5446 65.2837C52.4105 65.2272 52.2665 65.1978 52.121 65.1969L52.1713 65.2221Z" fill="#FFB100" stroke="white" stroke-width="0.5"/>
<path d="M56.4659 27.9437C57.1149 27.9388 57.7509 28.1261 58.2936 28.4821C58.8363 28.838 59.2614 29.3467 59.5155 29.9439C59.7695 30.5412 59.8411 31.2002 59.7212 31.8381C59.6012 32.4759 59.2951 33.064 58.8415 33.5281C58.3878 33.9923 57.8069 34.3118 57.172 34.4463C56.5371 34.5808 55.8765 34.5244 55.2736 34.284C54.6707 34.0437 54.1525 33.6303 53.7842 33.0959C53.4159 32.5615 53.214 31.93 53.2041 31.2811C53.1991 30.8478 53.2795 30.4177 53.4407 30.0155C53.6019 29.6132 53.8408 29.2467 54.1437 28.9367C54.4466 28.6268 54.8076 28.3796 55.2061 28.2092C55.6045 28.0388 56.0326 27.9486 56.4659 27.9437ZM56.4659 32.3138C56.6836 32.3188 56.8979 32.2588 57.0814 32.1415C57.2648 32.0242 57.4092 31.8549 57.496 31.6552C57.5828 31.4554 57.6081 31.2344 57.5687 31.0202C57.5293 30.806 57.427 30.6085 57.2748 30.4527C57.1227 30.2969 56.9275 30.19 56.7143 30.1457C56.5011 30.1013 56.2795 30.1215 56.0778 30.2036C55.8762 30.2858 55.7035 30.4262 55.582 30.6068C55.4604 30.7875 55.3955 31.0003 55.3954 31.2181C55.3985 31.5034 55.5115 31.7766 55.7109 31.9807C55.9103 32.1848 56.1808 32.3041 56.4659 32.3138Z" fill="#FFB100" stroke="white" stroke-width="0.5"/>
<path d="M55.3828 43.2832C54.7327 43.2808 54.098 43.0855 53.5588 42.7223C53.0196 42.359 52.6003 41.844 52.3538 41.2425C52.1073 40.6409 52.0448 39.9797 52.174 39.3426C52.3033 38.7055 52.6186 38.121 53.0801 37.663C53.5415 37.2051 54.1284 36.8943 54.7665 36.7699C55.4046 36.6455 56.0653 36.7131 56.665 36.9642C57.2646 37.2153 57.7764 37.6386 58.1355 38.1805C58.4946 38.7224 58.685 39.3587 58.6825 40.0088C58.6808 40.4404 58.5942 40.8676 58.4275 41.2657C58.2607 41.6639 58.0172 42.0253 57.7108 42.3294C57.4044 42.6335 57.0411 42.8742 56.6417 43.0379C56.2423 43.2015 55.8145 43.2849 55.3828 43.2832ZM56.4911 40.0088C56.4961 39.7916 56.4364 39.5779 56.3196 39.3947C56.2029 39.2115 56.0343 39.0672 55.8353 38.98C55.6363 38.8929 55.4159 38.8668 55.2021 38.9052C54.9883 38.9436 54.7907 39.0447 54.6345 39.1956C54.4783 39.3465 54.3704 39.5405 54.3246 39.7528C54.2789 39.9652 54.2972 40.1863 54.3774 40.3882C54.4576 40.5901 54.596 40.7636 54.7751 40.8866C54.9541 41.0097 55.1656 41.0767 55.3828 41.0793C55.6703 41.0795 55.9467 40.9679 56.1534 40.7681C56.3602 40.5684 56.4813 40.2961 56.4911 40.0088Z" fill="#FFB100" stroke="white" stroke-width="0.5"/>
<path d="M51.0127 48.8246C51.0153 48.1729 51.2115 47.5367 51.5765 46.9968C51.9414 46.4568 52.4587 46.0376 53.0625 45.7923C53.6662 45.547 54.3293 45.4867 54.9674 45.6191C55.6056 45.7515 56.1899 46.0706 56.6463 46.5358C57.1027 47.0011 57.4104 47.5915 57.5305 48.232C57.6506 48.8726 57.5775 49.5344 57.3206 50.1333C57.0637 50.7322 56.6346 51.2413 56.0877 51.5958C55.5409 51.9503 54.901 52.1343 54.2494 52.1243C53.3852 52.1078 52.562 51.7529 51.9568 51.1358C51.3515 50.5188 51.0125 49.6889 51.0127 48.8246ZM54.2745 47.7415C54.0569 47.7468 53.8457 47.8167 53.668 47.9425C53.4903 48.0682 53.354 48.2441 53.2767 48.4476C53.1993 48.6511 53.1844 48.8731 53.2337 49.0851C53.283 49.2972 53.3944 49.4897 53.5536 49.6382C53.7128 49.7867 53.9127 49.8844 54.1276 49.9188C54.3426 49.9532 54.563 49.9228 54.7606 49.8315C54.9582 49.7401 55.1242 49.592 55.2372 49.4059C55.3503 49.2199 55.4054 49.0043 55.3954 48.7868C55.3954 48.6402 55.3664 48.4951 55.3099 48.3598C55.2534 48.2245 55.1706 48.1018 55.0664 47.9987C54.9621 47.8956 54.8385 47.8142 54.7025 47.7593C54.5666 47.7043 54.4211 47.6769 54.2745 47.6786V47.7415Z" fill="#FFB100" stroke="white" stroke-width="0.5"/>
<path d="M31.2652 13.662C31.2677 14.3137 31.0763 14.9514 30.7155 15.4942C30.3548 16.0369 29.8408 16.4602 29.2389 16.7101C28.637 16.9601 27.9744 17.0255 27.3353 16.898C26.6961 16.7706 26.1093 16.456 25.6494 15.9943C25.1894 15.5326 24.8771 14.9445 24.7521 14.3049C24.6271 13.6653 24.6951 13.0029 24.9474 12.402C25.1996 11.8011 25.6249 11.2888 26.169 10.9301C26.7131 10.5714 27.3516 10.3825 28.0033 10.3875C28.8675 10.3974 29.6934 10.7459 30.3033 11.3582C30.9133 11.9705 31.2586 12.7977 31.2652 13.662ZM29.0738 13.662C29.0822 13.3714 28.9747 13.0894 28.7751 12.878C28.5756 12.6666 28.3002 12.5431 28.0096 12.5348C27.719 12.5264 27.437 12.6339 27.2256 12.8334C27.0142 13.033 26.8908 13.3084 26.8824 13.599C26.8783 13.7429 26.9025 13.8862 26.9538 14.0207C27.005 14.1552 27.0823 14.2783 27.1811 14.383C27.2799 14.4876 27.3984 14.5718 27.5297 14.6307C27.6611 14.6896 27.8027 14.722 27.9466 14.7262C28.0905 14.7303 28.2338 14.7061 28.3683 14.6548C28.5028 14.6036 28.626 14.5263 28.7306 14.4275C28.8353 14.3287 28.9195 14.2102 28.9784 14.0789C29.0372 13.9475 29.0697 13.8058 29.0738 13.662Z" fill="#FFB100" stroke="white" stroke-width="0.5"/>
<path d="M30.1695 22.44C30.172 23.0918 29.9807 23.7295 29.6199 24.2722C29.2591 24.815 28.7451 25.2382 28.1432 25.4882C27.5413 25.7382 26.8787 25.8036 26.2396 25.6761C25.6005 25.5487 25.0136 25.2341 24.5537 24.7724C24.0937 24.3106 23.7814 23.7226 23.6564 23.083C23.5314 22.4434 23.5994 21.781 23.8517 21.1801C24.104 20.5792 24.5292 20.0668 25.0733 19.7081C25.6174 19.3494 26.2559 19.1606 26.9076 19.1656C27.7718 19.1754 28.5977 19.524 29.2076 20.1363C29.8176 20.7486 30.1629 21.5758 30.1695 22.44ZM26.8572 21.3569C26.6396 21.3622 26.4284 21.4321 26.2507 21.5579C26.073 21.6836 25.9367 21.8595 25.8594 22.063C25.782 22.2665 25.7671 22.4885 25.8164 22.7005C25.8657 22.9126 25.9771 23.1051 26.1363 23.2536C26.2955 23.4021 26.4954 23.4998 26.7103 23.5342C26.9253 23.5686 27.1457 23.5382 27.3433 23.4469C27.5409 23.3555 27.7069 23.2074 27.8199 23.0213C27.933 22.8353 27.9881 22.6197 27.9781 22.4023C27.9619 22.1172 27.8363 21.8494 27.6275 21.6546C27.4187 21.4599 27.1428 21.3532 26.8572 21.3569Z" fill="#FFB100" stroke="white" stroke-width="0.5"/>
<path d="M25.8371 27.9437C26.4866 27.9537 27.1186 28.1559 27.6532 28.5247C28.1879 28.8936 28.6012 29.4126 28.8412 30.0162C29.0811 30.6199 29.1368 31.281 29.0012 31.9163C28.8657 32.5516 28.5449 33.1324 28.0795 33.5855C27.6141 34.0386 27.0249 34.3437 26.3862 34.4622C25.7476 34.5807 25.0881 34.5073 24.4911 34.2514C23.8941 33.9954 23.3864 33.5683 23.032 33.0239C22.6775 32.4796 22.4923 31.8424 22.4997 31.1929C22.513 30.32 22.8717 29.4879 23.4972 28.8789C24.1227 28.2698 24.9641 27.9336 25.8371 27.9437ZM26.8824 31.1929C26.8824 30.9023 26.767 30.6236 26.5615 30.4182C26.356 30.2127 26.0773 30.0972 25.7867 30.0972C25.4962 30.0972 25.2175 30.2127 25.012 30.4182C24.8065 30.6236 24.6911 30.9023 24.6911 31.1929C24.6893 31.34 24.7172 31.4859 24.7731 31.622C24.829 31.7581 24.9117 31.8815 25.0163 31.9849C25.1209 32.0884 25.2453 32.1697 25.3819 32.224C25.5186 32.2783 25.6649 32.3046 25.8119 32.3012C26.0993 32.2914 26.3716 32.1703 26.5713 31.9635C26.771 31.7567 26.8826 31.4804 26.8824 31.1929Z" fill="#FFB100" stroke="white" stroke-width="0.5"/>
<path d="M27.9781 40.0088C27.9755 40.6605 27.7793 41.2967 27.4143 41.8366C27.0494 42.3766 26.5321 42.7958 25.9283 43.0411C25.3246 43.2864 24.6615 43.3467 24.0234 43.2143C23.3852 43.0819 22.8009 42.7628 22.3445 42.2976C21.8881 41.8323 21.5804 41.2419 21.4603 40.6014C21.3402 39.9608 21.4133 39.299 21.6702 38.7001C21.9271 38.1012 22.3562 37.5921 22.9031 37.2376C23.4499 36.8831 24.0898 36.6991 24.7414 36.7091C25.6056 36.7256 26.4288 37.0805 27.034 37.6976C27.6393 38.3146 27.9783 39.1445 27.9781 40.0088ZM24.6659 41.0919C24.8857 41.1071 25.105 41.0556 25.2951 40.9442C25.4853 40.8329 25.6374 40.6668 25.7317 40.4676C25.826 40.2685 25.858 40.0455 25.8237 39.8278C25.7893 39.6102 25.6901 39.408 25.539 39.2476C25.3879 39.0872 25.192 38.976 24.9768 38.9287C24.7616 38.8813 24.5371 38.9 24.3327 38.9822C24.1282 39.0644 23.9533 39.2063 23.8308 39.3895C23.7082 39.5726 23.6438 39.7884 23.6458 40.0088C23.6511 40.2837 23.7585 40.5468 23.9471 40.747C24.1356 40.9471 24.3918 41.07 24.6659 41.0919Z" fill="#FFB100" stroke="white" stroke-width="0.5"/>
<path d="M26.8824 48.8246C26.8724 49.4746 26.6698 50.1071 26.3004 50.642C25.9309 51.1769 25.4112 51.5902 24.8068 51.8297C24.2025 52.0692 23.5406 52.1241 22.9051 51.9875C22.2695 51.8509 21.6887 51.529 21.2361 51.0623C20.7835 50.5956 20.4795 50.0052 20.3624 49.3658C20.2454 48.7263 20.3206 48.0665 20.5785 47.4698C20.8364 46.873 21.2655 46.3662 21.8114 46.0133C22.3574 45.6604 22.9957 45.4773 23.6458 45.4872C24.5154 45.507 25.3424 45.8682 25.948 46.4926C26.5536 47.1171 26.8893 47.9548 26.8824 48.8246ZM23.6458 49.8573C23.8626 49.847 24.0715 49.7725 24.246 49.6432C24.4204 49.514 24.5525 49.3358 24.6255 49.1313C24.6985 48.9268 24.7091 48.7053 24.656 48.4948C24.6029 48.2843 24.4884 48.0943 24.3271 47.9489C24.1658 47.8036 23.965 47.7094 23.7501 47.6784C23.5352 47.6474 23.3159 47.681 23.1201 47.7748C22.9243 47.8686 22.7608 48.0185 22.6504 48.2054C22.5399 48.3923 22.4875 48.6079 22.4997 48.8246C22.5191 49.1119 22.6496 49.3804 22.8635 49.5731C23.0775 49.7659 23.358 49.8678 23.6458 49.8573Z" fill="#FFB100" stroke="white" stroke-width="0.5"/>
</svg>
