<svg width="80" height="80" viewBox="0 0 80 80" fill="none" xmlns="http://www.w3.org/2000/svg">
<path d="M47.0938 10.783C47.9977 10.783 48.9017 10.783 49.8056 10.783C50.5457 10.783 50.948 11.1654 50.948 11.7763C50.948 12.3873 50.5407 12.7697 49.8106 12.7697C48.0027 12.7697 46.1898 12.7697 44.3819 12.7697C44.1185 12.7697 43.8658 12.665 43.6795 12.4787C43.4932 12.2925 43.3886 12.0398 43.3886 11.7763C43.3886 11.5129 43.4932 11.2602 43.6795 11.0739C43.8658 10.8876 44.1185 10.783 44.3819 10.783C45.2809 10.7681 46.1849 10.783 47.0938 10.783Z" fill="#FFB100"/>
<path d="M46.915 7.23175C47.6103 7.23175 47.9679 7.47016 48.0822 7.98173C48.1227 8.09568 48.1393 8.21676 48.1308 8.3374C48.1224 8.45804 48.0892 8.57565 48.0333 8.68287C47.9773 8.79009 47.8999 8.88462 47.8057 8.96053C47.7116 9.03645 47.6028 9.09213 47.4862 9.12409C46.4928 9.437 45.4399 9.7201 44.3968 9.94361C44.2795 9.97109 44.1578 9.9743 44.0392 9.95304C43.9206 9.93179 43.8076 9.88651 43.7072 9.82C43.6067 9.75348 43.5209 9.66714 43.455 9.56625C43.3891 9.46537 43.3445 9.35209 43.324 9.23336C43.2788 9.12713 43.2558 9.01274 43.2565 8.89727C43.2572 8.7818 43.2816 8.66771 43.3281 8.56204C43.3747 8.45637 43.4424 8.36137 43.5271 8.28291C43.6119 8.20445 43.7118 8.14421 43.8207 8.1059C44.8836 7.74829 45.9912 7.49002 46.915 7.23175Z" fill="#FFB100"/>
<path d="M47.0292 16.3259C45.9224 16.1116 44.8333 15.8144 43.771 15.4368C43.6655 15.3927 43.57 15.3277 43.4902 15.2457C43.4104 15.1637 43.348 15.0665 43.3067 14.9598C43.2654 14.8531 43.2461 14.7392 43.25 14.6249C43.2538 14.5105 43.2807 14.3982 43.329 14.2945C43.3552 14.1779 43.4045 14.0677 43.474 13.9704C43.5435 13.8732 43.6318 13.7909 43.7337 13.7284C43.8356 13.6659 43.949 13.6244 44.0671 13.6065C44.1853 13.5886 44.3059 13.5945 44.4217 13.624C45.415 13.8475 46.4432 14.1206 47.4365 14.4187C47.5526 14.4484 47.6616 14.5013 47.7567 14.5742C47.8519 14.6471 47.9313 14.7385 47.9902 14.8429C48.0491 14.9473 48.0863 15.0625 48.0996 15.1817C48.1128 15.3008 48.1019 15.4214 48.0673 15.5362C47.9779 16.0478 47.6302 16.2911 47.0292 16.3259Z" fill="#FFB100"/>
<path d="M52.7261 7.04797C52.5871 8.1208 51.6434 8.01153 50.948 8.2549C50.3818 8.45357 49.8156 8.51317 49.458 7.89729C49.3826 7.77138 49.336 7.63033 49.3216 7.48427C49.3072 7.33822 49.3254 7.19079 49.3748 7.05258C49.4242 6.91438 49.5036 6.78884 49.6073 6.68499C49.711 6.58114 49.8364 6.50155 49.9745 6.45196C50.4889 6.27743 51.0151 6.13967 51.549 6.03972C51.6952 6.01212 51.8457 6.01771 51.9895 6.05608C52.1332 6.09444 52.2665 6.16461 52.3795 6.26139C52.4925 6.35818 52.5823 6.47911 52.6423 6.61525C52.7023 6.75139 52.7309 6.89928 52.7261 7.04797Z" fill="#FFB100"/>
<path d="M54.534 10.8029C54.8185 10.7854 55.1038 10.7854 55.3883 10.8029C55.5087 10.8071 55.6269 10.8358 55.7358 10.8872C55.8447 10.9385 55.9421 11.0115 56.022 11.1016C56.1018 11.1917 56.1626 11.2971 56.2005 11.4113C56.2385 11.5256 56.2528 11.6464 56.2426 11.7664C56.2649 11.9959 56.1962 12.2249 56.0513 12.4042C55.9064 12.5835 55.6968 12.6987 55.4678 12.725C54.8326 12.8244 54.1858 12.8244 53.5506 12.725C53.4308 12.7124 53.3148 12.6754 53.2098 12.6164C53.1048 12.5574 53.013 12.4775 52.94 12.3817C52.8669 12.2859 52.8143 12.1761 52.7852 12.0592C52.7561 11.9423 52.7512 11.8207 52.7708 11.7019C52.7654 11.472 52.8502 11.2492 53.0071 11.0811C53.164 10.9131 53.3805 10.8132 53.6102 10.8029C53.9132 10.778 54.2261 10.8078 54.534 10.8029Z" fill="#FFB100"/>
<path d="M52.7261 16.5494C52.7287 16.6969 52.6984 16.8431 52.6374 16.9773C52.5764 17.1116 52.4863 17.2306 52.3736 17.3258C52.2609 17.4209 52.1284 17.4897 51.9858 17.5272C51.8431 17.5648 51.6939 17.5701 51.549 17.5428C51.0451 17.4392 50.5476 17.3065 50.059 17.1454C49.9291 17.1169 49.8069 17.0607 49.7006 16.9808C49.5944 16.901 49.5065 16.7992 49.4429 16.6824C49.3793 16.5656 49.3416 16.4366 49.3322 16.304C49.3228 16.1713 49.342 16.0382 49.3885 15.9137C49.4141 15.7896 49.4653 15.6722 49.5388 15.5689C49.6122 15.4657 49.7064 15.3788 49.8152 15.3139C49.924 15.249 50.0452 15.2074 50.1709 15.1918C50.2967 15.1762 50.4243 15.1869 50.5457 15.2233C51.0424 15.3177 51.5391 15.4518 51.9911 15.5908C52.2019 15.6476 52.3882 15.7723 52.521 15.9456C52.6539 16.1188 52.726 16.3311 52.7261 16.5494Z" fill="#FFB100"/>
<path d="M50.1434 34.9761C50.1945 32.8 49.7081 30.645 48.7274 28.7017C47.7467 26.7585 46.3019 25.0872 44.521 23.8357C44.3865 23.7439 44.2794 23.6174 44.2111 23.4696C44.1429 23.3217 44.1161 23.1582 44.1336 22.9963C44.1336 21.6155 44.1336 20.2348 44.1336 18.854C44.1336 16.8673 44.1088 16.7928 42.1022 16.8275C41.5062 16.8275 41.4019 16.6289 41.4068 16.0974C41.4068 13.1919 41.4068 10.2863 41.4068 7.38076C41.4217 6.33774 41.089 6 40.0658 6H33.1372C32.0494 6 31.7365 6.30794 31.7365 7.39566C31.7365 10.0843 31.7365 12.7747 31.7365 15.4667C31.7365 16.7928 31.7365 16.7928 30.4005 16.8027C29.283 16.8027 29.0247 17.0709 29.0247 18.2033C29.0247 19.8225 29.0247 21.4417 29.0247 23.0608C29.0387 23.1997 29.0153 23.3397 28.9567 23.4664C28.8982 23.5931 28.8067 23.7017 28.6919 23.781C24.8079 26.6419 23 30.506 23 35.3039C23.0298 41.264 23 47.2242 23 53.1843C23 59.6609 23 66.136 23 72.6093C23 73.6623 23.3179 73.995 24.341 74H48.7775C49.8056 74 50.1483 73.6623 50.1483 72.6292C50.155 60.0765 50.1533 47.5255 50.1434 34.9761ZM33.753 12.4171C33.753 11.1307 33.753 9.84924 33.753 8.56285C33.753 8.15061 33.8226 7.98174 34.2895 7.99167C35.8341 8.02147 37.3788 7.99167 38.9235 7.99167C39.3158 7.99167 39.4648 8.08108 39.4599 8.48835C39.4599 11.081 39.4599 13.6687 39.4599 16.2613C39.4599 16.7232 39.296 16.8077 38.8788 16.8027C37.3589 16.8027 35.8391 16.7779 34.3143 16.8027C33.8872 16.8027 33.7381 16.6984 33.7481 16.2514C33.753 14.9849 33.7332 13.6985 33.7332 12.4171H33.753ZM31.5577 18.7994C33.2514 18.8292 34.9401 18.7994 36.6288 18.7994C38.3175 18.7994 39.9168 18.7994 41.5558 18.7994C42.0525 18.7994 42.1618 18.9384 42.1469 19.4003C42.1171 20.4682 42.1469 21.541 42.1469 22.6138C42.1469 22.9764 42.0426 23.1105 41.6502 23.1105C38.2728 23.1105 34.8938 23.1105 31.513 23.1105C31.0809 23.1105 31.0164 22.9565 31.0164 22.5741C31.0164 21.5013 31.0412 20.4334 31.0164 19.3606C30.9965 18.9136 31.1107 18.7894 31.5577 18.7994ZM47.4216 72.0034C40.18 71.9835 32.9402 71.9835 25.7019 72.0034C25.1456 72.0034 24.9966 71.8643 24.9966 71.2981C25.0099 59.2222 25.0066 47.1497 24.9867 35.0804C24.933 33.2165 25.3352 31.3677 26.1584 29.6946C26.9815 28.0214 28.2007 26.5746 29.7101 25.4797C30.047 25.2164 30.4647 25.0777 30.8922 25.0873C34.6769 25.1071 38.4632 25.1071 42.2512 25.0873C42.6532 25.0786 43.046 25.2083 43.3637 25.4548C44.886 26.5531 46.1163 28.0071 46.9474 29.6901C47.7785 31.3731 48.1852 33.2339 48.1318 35.1102C48.1318 40.9213 48.1318 46.7324 48.1318 52.5436C48.1318 58.7818 48.1318 65.025 48.1318 71.2633C48.1716 71.8593 48.0077 72.0034 47.4216 72.0034Z" fill="#FFB100"/>
<path d="M31.5578 69.5746C30.6787 69.5746 29.7995 69.5746 28.9204 69.5746C28.657 69.5746 28.4043 69.47 28.218 69.2837C28.0317 69.0974 27.9271 68.8447 27.9271 68.5813C27.9271 68.3178 28.0317 68.0651 28.218 67.8788C28.4043 67.6926 28.657 67.5879 28.9204 67.5879C30.7532 67.5879 32.5809 67.5879 34.4137 67.5879C34.5561 67.5734 34.6999 67.5899 34.8354 67.6361C34.9708 67.6824 35.0946 67.7574 35.1984 67.856C35.3022 67.9545 35.3834 68.0744 35.4366 68.2073C35.4897 68.3402 35.5135 68.483 35.5063 68.626C35.5063 69.212 35.0941 69.5696 34.4087 69.5796C33.46 69.5994 32.5114 69.5746 31.5578 69.5746Z" fill="#FFB100"/>
<path d="M39.0924 69.5746C38.7615 69.5918 38.4299 69.5918 38.099 69.5746C37.8575 69.5668 37.6286 69.4647 37.4615 69.2902C37.2943 69.1156 37.2023 68.8825 37.205 68.6409C37.1898 68.5231 37.1985 68.4035 37.2305 68.2892C37.2626 68.1749 37.3173 68.0682 37.3915 67.9755C37.4656 67.8828 37.5577 67.806 37.6622 67.7496C37.7667 67.6933 37.8815 67.6585 37.9997 67.6475C38.708 67.573 39.4221 67.573 40.1304 67.6475C40.2512 67.6547 40.3693 67.6866 40.4772 67.7413C40.5852 67.796 40.6808 67.8723 40.7581 67.9654C40.8354 68.0585 40.8927 68.1665 40.9266 68.2827C40.9604 68.3989 40.9701 68.5208 40.9549 68.6409C40.9562 68.7638 40.933 68.8859 40.8865 68.9998C40.8401 69.1136 40.7713 69.2171 40.6844 69.3041C40.5974 69.3911 40.4939 69.4598 40.38 69.5062C40.2662 69.5527 40.1441 69.5759 40.0211 69.5746C39.7132 69.5994 39.4003 69.5746 39.0924 69.5746Z" fill="#FFB100"/>
<path d="M44.0938 48.5304C44.0938 46.2954 44.1882 44.0603 44.0938 41.8203C43.9493 39.9099 43.0814 38.1267 41.6673 36.8341C40.2532 35.5415 38.3993 34.837 36.4837 34.8643C34.568 34.8915 32.7349 35.6484 31.3581 36.9807C29.9813 38.3129 29.1645 40.1202 29.0743 42.0339C28.9949 46.3649 28.9949 50.6959 29.0743 55.027C29.1422 56.9558 29.9492 58.7847 31.3282 60.1351C32.7072 61.4855 34.5526 62.2539 36.4825 62.2814C38.4123 62.3088 40.2788 61.5931 41.6957 60.2825C43.1125 58.9719 43.9711 57.1667 44.0938 55.2405C44.1882 53.0104 44.0938 50.7704 44.0938 48.5304ZM42.1369 54.421C42.1369 56.9044 41.0691 58.757 38.7844 59.7503C37.7972 60.2208 36.6884 60.3731 35.611 60.1862C34.5336 59.9994 33.5407 59.4826 32.7696 58.7073C32.2285 58.236 31.7944 57.6545 31.4963 57.0018C31.1982 56.3491 31.043 55.6402 31.0412 54.9227C31.0163 52.782 31.0412 50.6413 31.0412 48.5006C31.0412 46.4046 31.0064 44.3087 31.0412 42.2127C31.0637 40.9529 31.5211 39.7396 32.3357 38.7783C33.1503 37.817 34.2722 37.1669 35.5113 36.938C36.7113 36.7008 37.956 36.8668 39.0519 37.4103C40.1477 37.9537 41.0333 38.8441 41.5707 39.9429C41.9693 40.7849 42.1649 41.7086 42.1419 42.6398C42.1452 46.5702 42.1436 50.4973 42.1369 54.421Z" fill="#FFB100"/>
</svg>
