<svg width="80" height="80" viewBox="0 0 80 80" fill="none" xmlns="http://www.w3.org/2000/svg">
<path d="M28.6275 74C28.486 73.711 28.3838 73.4044 28.3236 73.0883C28.2177 69.7303 27.6058 66.4074 26.5084 63.232C26.1397 62.2848 25.7145 61.3605 25.2353 60.4641C25.074 60.22 24.8233 60.0489 24.5371 59.9877C23.1554 59.8207 21.8852 59.1453 20.9742 58.0931C20.0632 57.0408 19.5765 55.6871 19.609 54.2957C19.609 53.4743 19.609 52.653 19.609 51.8316C17.5638 51.5688 17.5638 51.5688 17.5638 49.5318V45.4825C17.5638 44.193 17.8842 43.8398 19.1408 43.8398H19.5679V36.2587C19.5105 36.2587 19.4694 36.1848 19.4365 36.1848C17.7199 36.2587 17.5638 35.5688 17.5638 34.1478C17.5638 32.7269 17.5638 31.3142 17.5638 29.9014C17.5638 28.4887 17.8924 28.2587 19.2066 28.2094H19.6337C19.6337 27.3881 19.6337 26.5667 19.6337 25.7454C19.5712 24.4704 19.9628 23.2146 20.7387 22.2011C21.5147 21.1875 22.6248 20.4819 23.8719 20.2094C24.3063 20.1307 24.7115 19.9367 25.0453 19.6477C25.3791 19.3588 25.6291 18.9854 25.7692 18.5667C27.0296 15.7416 27.815 12.7278 28.0936 9.64682C28.2415 8.67762 28.2415 7.70842 28.3236 6.73922C28.3236 6.20534 28.6111 6 29.1449 6H50.6973C51.264 6 51.5187 6.25462 51.5187 6.82136C51.5748 9.49961 51.9694 12.16 52.6932 14.7392C53.2024 16.3819 53.9088 17.9507 54.5823 19.5359C54.6628 19.6689 54.7701 19.7835 54.8974 19.8726C55.0246 19.9617 55.1691 20.0233 55.3215 20.0534C56.6879 20.2312 57.9405 20.907 58.8393 21.9513C59.7381 22.9956 60.2199 24.335 60.1922 25.7125C60.1922 26.5339 60.1922 27.3552 60.1922 28.2259H60.9396C61.1176 28.2099 61.297 28.2339 61.4645 28.2961C61.632 28.3584 61.7836 28.4573 61.908 28.5856C62.0323 28.7139 62.1265 28.8685 62.1835 29.0379C62.2405 29.2073 62.2589 29.3873 62.2373 29.5647C62.2373 31.2731 62.2373 32.9733 62.2373 34.6817C62.2373 35.7659 61.8431 36.152 60.7671 36.1766H60.2743V43.7823C60.3154 43.7823 60.3318 43.8398 60.3482 43.8398C62.2209 44.037 62.2702 44.0862 62.2702 45.9754V50.1889C62.2702 51.3963 61.9088 51.7495 60.685 51.8316C60.5536 51.8316 60.4222 51.8316 60.2168 51.8316V54.0246C60.2168 57.3101 58.4509 59.3799 55.2887 59.9959C54.9888 60.091 54.7363 60.2965 54.5823 60.5708C53.3668 62.7542 52.5439 65.1339 52.1511 67.6016C51.8554 69.4086 51.7322 71.2402 51.5022 73.0637C51.4471 73.384 51.359 73.6978 51.2394 74H28.6275ZM50.1963 7.23203H29.6624C29.3256 9.42505 29.1203 11.6099 28.6275 13.729C28.1347 15.848 27.3298 17.8768 26.6809 19.963H53.1532C52.5043 17.9097 51.7158 15.8563 51.2312 13.7947C50.7466 11.7331 50.533 9.45791 50.1963 7.23203ZM26.4345 60.0452C28.5207 64.152 29.2353 68.3984 29.5063 72.7598H50.3359C50.4391 68.3535 51.4778 64.0195 53.3831 60.0452H26.4345ZM39.9047 58.8131C44.7261 58.8131 49.5474 58.8131 54.3688 58.8131C57.3092 58.8131 59.0012 56.9569 59.0094 54V34.8871C59.0094 31.8316 59.0094 28.7844 59.0094 25.729C59.0345 25.131 58.9361 24.5344 58.7203 23.9762C58.5045 23.418 58.1759 22.9103 57.755 22.4849C57.3342 22.0594 56.8301 21.7253 56.2743 21.5033C55.7186 21.2814 55.123 21.1765 54.5248 21.1951C51.5187 21.154 48.5125 21.1951 45.4899 21.1951C38.7877 21.1951 32.0854 21.1951 25.3831 21.1951C24.7711 21.167 24.16 21.2686 23.5901 21.4934C23.0201 21.7181 22.5041 22.0608 22.0759 22.4991C21.6478 22.9373 21.3171 23.4612 21.1057 24.0362C20.8943 24.6113 20.8069 25.2245 20.8493 25.8357C20.8493 28.3409 20.8493 30.8378 20.8493 33.3347V45.0801C20.8493 48.1273 20.8493 51.1745 20.8493 54.2382C20.8183 54.8384 20.9122 55.4385 21.125 56.0006C21.3378 56.5626 21.6649 57.0744 22.0856 57.5036C22.5063 57.9328 23.0114 58.2701 23.5691 58.4941C24.1268 58.7181 24.7249 58.8239 25.3256 58.8049C30.1716 58.8378 35.0341 58.8131 39.9047 58.8131ZM18.8287 29.4251V34.9281H19.5762V29.4251H18.8287ZM60.2497 29.4251V34.9117H60.9971V29.4415L60.2497 29.4251ZM19.5844 50.5585V45.0719H18.8369V50.5585H19.5844ZM61.0217 50.5585V45.0801H60.2743V50.5667L61.0217 50.5585Z" fill="#FFB100" stroke="#FFB100" stroke-width="0.5"/>
<path d="M39.9786 22.7556H54.0567C56.2333 22.7556 57.4242 23.9466 57.4242 26.1232V53.8768C57.4242 56.0534 56.225 57.2443 54.0567 57.2443H25.7774C23.609 57.2443 22.4181 56.0534 22.4181 53.8768C22.4181 44.6283 22.4181 35.3771 22.4181 26.1232C22.4181 23.9466 23.609 22.7556 25.7774 22.7556H39.9786ZM39.8801 56.0534H54.0238C55.5762 56.0534 56.2333 55.3963 56.2333 53.8275V26.1396C56.2333 24.6201 55.568 23.9466 54.0567 23.9466C44.6275 23.9466 35.2011 23.9466 25.7774 23.9466C24.2661 23.9466 23.6008 24.6201 23.6008 26.1396V53.8193C23.6008 55.3963 24.2497 56.0534 25.8103 56.0534H39.8801Z" fill="#FFB100" stroke="#FFB100" stroke-width="0.5"/>
<path d="M43.3876 48C42.6868 47.7769 42.0002 47.5123 41.3316 47.2076C39.2495 46.0259 37.3743 44.52 35.7784 42.7481C34.5169 41.5214 33.4505 40.1134 32.6151 38.572C32.3059 37.9467 32.0984 37.2772 32.0001 36.5881C31.9961 36.1745 32.1486 35.7744 32.4277 35.466C33.1013 34.7083 33.857 34.0142 34.5892 33.3085C34.6605 33.2129 34.7536 33.1351 34.861 33.0815C34.9683 33.0279 35.0869 33 35.2072 33C35.3275 33 35.4461 33.0279 35.5535 33.0815C35.6608 33.1351 35.7539 33.2129 35.8252 33.3085C36.411 33.8869 36.9968 34.4653 37.5826 35.0437C37.6784 35.1149 37.7561 35.207 37.8097 35.3129C37.8632 35.4189 37.8911 35.5356 37.8911 35.654C37.8911 35.7723 37.8632 35.8891 37.8097 35.995C37.7561 36.1009 37.6784 36.193 37.5826 36.2642C37.3951 36.4551 37.2194 36.6575 36.9968 36.8426C36.7106 37.0687 36.5071 37.3809 36.4172 37.7317C36.3273 38.0825 36.356 38.4528 36.4989 38.786C37.0194 40.1673 37.9556 41.3582 39.1817 42.1986C39.9182 42.8184 40.8038 43.2406 41.7533 43.4248C42.0157 43.4844 42.2898 43.4693 42.5438 43.3813C42.7978 43.2932 43.0214 43.1358 43.1885 42.9274C43.3695 42.7211 43.5653 42.5278 43.7743 42.349C43.8451 42.2631 43.9345 42.1939 44.0358 42.1464C44.1371 42.0989 44.2479 42.0742 44.36 42.0742C44.4722 42.0742 44.583 42.0989 44.6843 42.1464C44.7856 42.1939 44.8749 42.2631 44.9458 42.349C45.5433 42.9274 46.1291 43.5058 46.7032 44.0842C46.7955 44.1538 46.8703 44.2436 46.9217 44.3464C46.9732 44.4492 47 44.5624 47 44.6771C47 44.7918 46.9732 44.9049 46.9217 45.0077C46.8703 45.1106 46.7955 45.2003 46.7032 45.2699C45.9768 46.0103 45.2563 46.7564 44.483 47.4389C44.1443 47.6724 43.776 47.861 43.3876 48ZM43.5048 43.7892C42.632 44.4949 41.6362 44.3676 40.6696 43.9974C38.6455 43.1872 36.9827 41.687 35.9834 39.7693C35.3976 38.6588 35.2453 37.5135 36.1005 36.4955L34.3432 34.7603C33.9859 35.1247 33.6168 35.5354 33.2068 35.9171C33.0422 36.0416 32.9238 36.2161 32.8698 36.4137C32.8158 36.6113 32.8292 36.821 32.908 37.0103C33.1253 37.6408 33.4038 38.2491 33.7398 38.8265C35.6467 41.7434 38.1608 44.2258 41.1148 46.1086C41.7321 46.4769 42.3932 46.7683 43.083 46.9762C43.2309 47.0119 43.3847 47.0159 43.5343 46.988C43.6838 46.96 43.8256 46.9008 43.95 46.8143C44.4202 46.4226 44.8662 46.0035 45.2856 45.5591L43.5048 43.7892ZM34.9173 33.9853C35.0813 34.1761 35.1516 34.2629 35.2277 34.3381C35.6788 34.7892 36.1357 35.2462 36.5984 35.6858C36.657 35.7378 36.7742 35.7205 36.8679 35.7378C36.8679 35.6453 36.8679 35.5296 36.7918 35.4718C36.3231 34.9859 35.8428 34.5116 35.3507 34.0489C35.2863 33.991 35.1457 34.0142 34.9173 33.9853ZM45.9416 44.8419C46.0998 44.6106 46.1057 44.6048 44.6471 43.2224C44.5271 43.1376 44.3947 43.0713 44.2546 43.0257L44.2194 43.1356L45.9416 44.8419Z" fill="#FFB100"/>
<path d="M41.852 32C42.7793 32.0047 43.6936 32.2168 44.5273 32.6208C45.3609 33.0247 46.0924 33.6101 46.6676 34.3335C47.2428 35.0569 47.6469 35.8997 47.85 36.7996C48.0531 37.6995 48.0499 38.6332 47.8407 39.5317C47.77 39.8133 47.6665 40.0732 47.329 39.9811C46.9914 39.8891 47.0078 39.6183 47.0731 39.3422C47.0762 39.3134 47.0762 39.2844 47.0731 39.2556C47.2558 38.3921 47.2195 37.497 46.9675 36.6509C46.7156 35.8049 46.2559 35.0345 45.6299 34.4092C45.0038 33.7839 44.2312 33.3234 43.3816 33.0692C42.532 32.815 41.6321 32.775 40.7631 32.953C40.706 32.966 40.6496 32.9822 40.5944 33.0017C40.3221 33.0558 40.0499 33.0017 40.0064 32.7093C39.9628 32.4169 40.1479 32.2816 40.4038 32.2328L41.852 32Z" fill="#FFB100" stroke="#FFB100" stroke-width="0.5"/>
<path d="M41.4998 34C42.1707 34.0063 42.8318 34.1605 43.4358 34.4516C44.0397 34.7427 44.5714 35.1634 44.9927 35.6835C45.414 36.2037 45.7144 36.8103 45.8723 37.4598C46.0303 38.1093 46.0418 38.7857 45.9061 39.4402C45.8379 39.7554 45.7324 40.0584 45.3352 39.9904C44.938 39.9224 44.9628 39.5947 45.0125 39.2794C45.4407 36.5717 43.4423 34.5749 40.7302 35.0138C40.4199 35.0633 40.1096 35.088 40.0165 34.6924C39.9234 34.2967 40.2399 34.1793 40.5565 34.1298C40.873 34.0804 41.2143 34.0433 41.4998 34Z" fill="#FFB100" stroke="#FFB100" stroke-width="0.5"/>
<path d="M43.3278 38.3428C43.354 38.1153 43.3279 37.8849 43.2516 37.6689C43.1753 37.4529 43.0507 37.257 42.8872 37.096C42.7237 36.935 42.5256 36.8131 42.3079 36.7394C42.0901 36.6658 41.8584 36.6423 41.6303 36.6709C41.5567 36.6709 41.4692 36.7213 41.414 36.6938C41.2706 36.6123 41.1323 36.5221 41 36.4236C41.1104 36.2999 41.1932 36.0938 41.3266 36.0571C41.623 35.988 41.9307 35.9815 42.2297 36.0382C42.5287 36.0948 42.8125 36.2133 43.0627 36.386C43.3129 36.5587 43.5239 36.7817 43.6821 37.0407C43.8403 37.2996 43.9421 37.5887 43.9811 37.8893C44.0063 38.1329 44.0063 38.3785 43.9811 38.6222C43.9581 38.8466 43.8477 39.039 43.5762 38.9932C43.3048 38.9474 43.291 38.755 43.3232 38.5352C43.314 38.4619 43.3186 38.4023 43.3278 38.3428Z" fill="#FFB100" stroke="#FFB100" stroke-width="0.5"/>
</svg>
