<svg width="80" height="80" viewBox="0 0 80 80" fill="none" xmlns="http://www.w3.org/2000/svg">
<path d="M38.6713 73.9945C37.5069 73.8671 36.3425 73.7736 35.1866 73.5951C34.0307 73.4166 32.8323 73.1701 31.6679 72.9236C30.8604 72.7451 30.5205 72.2692 30.682 71.6317C30.8435 70.9943 31.3619 70.7818 32.1353 70.9943C34.9444 71.7107 37.8387 72.0367 40.7367 71.9632C48.5929 71.7748 56.1032 68.6937 61.8283 63.3105C67.5534 57.9273 71.0904 50.6206 71.7616 42.7908C72.4327 34.9611 70.1907 27.159 65.4652 20.88C60.7398 14.601 53.8633 10.2868 46.1538 8.76415C38.4442 7.24151 30.4439 8.6176 23.6862 12.6287C16.9285 16.6397 11.8887 23.0036 9.5328 30.5006C7.17689 37.9977 7.67058 46.1004 10.9193 53.256C14.1679 60.4115 19.943 66.1165 27.1377 69.2774L27.5032 69.4474C28.1747 69.7704 28.4041 70.2973 28.1577 70.8243C28.0959 70.9552 28.0069 71.0715 27.8967 71.1654C27.7865 71.2593 27.6576 71.3287 27.5185 71.3689C27.3794 71.4091 27.2333 71.4192 27.09 71.3986C26.9467 71.378 26.8094 71.3271 26.6873 71.2493C23.2938 69.8221 20.1648 67.8338 17.4315 65.3677C11.4026 60.0644 7.48108 52.7704 6.38241 44.8164C5.45497 38.2784 6.45798 31.6118 9.26817 25.6361C12.0784 19.6605 16.5733 14.6361 22.2004 11.1805C27.8276 7.72488 34.3417 5.9887 40.9423 6.18532C47.5428 6.38194 53.9421 8.50279 59.3536 12.2872C64.7651 16.0716 68.953 21.3547 71.4025 27.487C73.852 33.6194 74.4564 40.3338 73.1414 46.805C71.8265 53.2763 68.6494 59.2223 64.0008 63.9123C59.3521 68.6023 53.4345 71.8319 46.9752 73.2041C45.2243 73.5611 43.4224 73.6801 41.6546 73.9096C41.5186 73.9096 41.3911 73.969 41.2636 73.9945H38.6713Z" fill="#FFB100"/>
<path d="M41.3062 73.9945C42.4706 73.8671 43.6435 73.7736 44.7994 73.5951C45.9553 73.4166 47.1452 73.1701 48.3096 72.9236C49.1171 72.7451 49.4571 72.2692 49.2956 71.6317C49.1341 70.9943 48.6241 70.7818 47.8507 70.9943C39.8521 73.0178 31.3808 71.8703 24.2088 67.7918C17.0368 63.7132 11.7195 57.0195 9.36919 49.1107C7.01886 41.202 7.81751 32.6908 11.5981 25.3573C15.3787 18.0238 21.8484 12.4362 29.6539 9.76302C37.4595 7.08988 45.9964 7.53832 53.4789 11.0146C60.9614 14.4908 66.8101 20.7255 69.8015 28.4147C72.793 36.1039 72.6955 44.652 69.5295 52.271C66.3635 59.89 60.3741 65.9897 52.8143 69.2944L52.4488 69.4644C51.7859 69.7874 51.5479 70.3143 51.8029 70.8413C52.0578 71.3683 52.5848 71.5552 53.2647 71.2663C56.6594 69.8339 59.7885 67.8398 62.5205 65.3677C68.5458 60.0615 72.4666 52.769 73.5696 44.8164C74.4971 38.2784 73.494 31.6118 70.6839 25.6361C67.8737 19.6605 63.3788 14.6361 57.7516 11.1805C52.1245 7.72488 45.6103 5.9887 39.0097 6.18532C32.4092 6.38194 26.0099 8.50279 20.5984 12.2872C15.1869 16.0716 10.9991 21.3547 8.54956 27.487C6.10005 33.6194 5.49564 40.3338 6.81061 46.805C8.12557 53.2763 11.3026 59.2223 15.9513 63.9123C20.5999 68.6023 26.5176 71.8319 32.9769 73.2041C34.6767 73.5611 36.5211 73.6801 38.2889 73.9096C38.4249 73.9096 38.5524 73.969 38.6799 73.9945H41.3062Z" fill="#FFB100"/>
<path d="M65.8947 6C66.3452 6.09349 66.7956 6.17849 67.2461 6.28048C69.2259 6.7706 70.977 7.92657 72.2057 9.55453C73.4345 11.1825 74.066 13.1834 73.9946 15.2218C73.9946 15.9612 73.6036 16.3862 73.0086 16.3947C72.4137 16.4032 72.0142 15.9612 72.0057 15.1793C72.0888 13.3684 71.4499 11.5986 70.2292 10.2584C69.0086 8.91824 67.306 8.11725 65.4952 8.03134C64.9258 7.98884 64.4243 7.90385 64.2628 7.2664C64.1014 6.62895 64.5008 6.29748 64.9598 6H65.8947Z" fill="#FFB100" stroke="white" stroke-width="0.5"/>
<path d="M15.0263 6C15.5107 6.31447 15.9442 6.65445 15.7232 7.33439C15.5022 8.01434 15.0858 7.98884 14.5673 8.03134C13.1019 8.084 11.6927 8.609 10.5501 9.52803C9.40741 10.4471 8.59247 11.7109 8.22682 13.1309C8.08067 13.755 8.00652 14.3938 8.00584 15.0348C8.00584 15.6042 7.92085 16.1142 7.3004 16.3012C6.67995 16.4882 6.29748 16.1992 6 15.6977V13.8364C6.04735 13.7143 6.08709 13.5894 6.11899 13.4624C6.38151 11.7751 7.13226 10.2015 8.27862 8.9358C9.42497 7.67013 10.9168 6.76774 12.57 6.33997C13.0714 6.18698 13.5899 6.11049 14.0998 6H15.0263Z" fill="#FFB100" stroke="white" stroke-width="0.5"/>
<path d="M10.3602 14.6863C10.4042 13.6163 10.8428 12.6004 11.5914 11.8345C12.34 11.0687 13.3456 10.6071 14.4144 10.5387C14.5561 10.5147 14.7013 10.5199 14.841 10.5541C14.9806 10.5883 15.1118 10.6507 15.2265 10.7375C15.3411 10.8242 15.4368 10.9336 15.5076 11.0587C15.5784 11.1838 15.6229 11.3221 15.6383 11.4651C15.6383 12.0345 15.2813 12.434 14.6013 12.519C14.0092 12.538 13.4464 12.7812 13.0267 13.1993C12.607 13.6174 12.3618 14.1793 12.3405 14.7713C12.281 15.6723 11.9496 16.1142 11.2951 16.0887C10.6407 16.0632 10.3262 15.5703 10.3602 14.6863Z" fill="#FFB100" stroke="white" stroke-width="0.5"/>
<path d="M69.6429 14.7884C69.6429 15.6383 69.2944 16.0888 68.6655 16.0888C68.0365 16.0888 67.7051 15.6638 67.6541 14.8649C67.6568 14.2608 67.4256 13.6791 67.0089 13.2417C66.5921 12.8044 66.0223 12.5454 65.4188 12.5191C64.7048 12.4341 64.2968 12.0176 64.3648 11.4311C64.3892 11.2924 64.4412 11.1599 64.5177 11.0416C64.5941 10.9233 64.6936 10.8215 64.81 10.7423C64.9265 10.6631 65.0577 10.608 65.1958 10.5803C65.3339 10.5526 65.4762 10.5529 65.6142 10.5812C66.6877 10.6587 67.6941 11.132 68.4384 11.9093C69.1828 12.6866 69.612 13.7126 69.6429 14.7884Z" fill="#FFB100" stroke="white" stroke-width="0.5"/>
<path d="M43.074 29.6876C43.074 30.4611 43.074 31.2345 43.074 32.0079C43.0785 32.4086 43.004 32.8063 42.8548 33.1782C42.7055 33.5501 42.4845 33.889 42.2044 34.1755C41.9242 34.4619 41.5903 34.6904 41.2218 34.8479C40.8533 35.0054 40.4575 35.0887 40.0568 35.0932C39.2475 35.1022 38.4678 34.7894 37.8892 34.2235C37.3106 33.6577 36.9805 32.8852 36.9715 32.0759C36.9205 30.4611 36.9205 28.8462 36.9715 27.2313C37.0206 26.4486 37.3684 25.7147 37.9429 25.181C38.5175 24.6473 39.2751 24.3546 40.0593 24.3633C40.8435 24.372 41.5944 24.6815 42.1569 25.2279C42.7195 25.7742 43.0508 26.5157 43.0825 27.2993C43.0825 28.0982 43.0825 28.8887 43.0825 29.6876H43.074ZM41.0937 29.6876C41.0937 28.9567 41.0937 28.2257 41.0937 27.5033C41.107 27.3529 41.0889 27.2014 41.0405 27.0584C40.9921 26.9154 40.9145 26.7841 40.8125 26.6727C40.7106 26.5613 40.5866 26.4724 40.4485 26.4116C40.3103 26.3507 40.161 26.3193 40.01 26.3193C39.859 26.3193 39.7097 26.3507 39.5716 26.4116C39.4334 26.4724 39.3094 26.5613 39.2075 26.6727C39.1056 26.7841 39.0279 26.9154 38.9795 27.0584C38.9311 27.2014 38.913 27.3529 38.9264 27.5033C38.9264 28.9425 38.9264 30.3789 38.9264 31.8124C38.9169 31.962 38.9386 32.1119 38.9902 32.2525C39.0418 32.3932 39.1221 32.5216 39.2261 32.6295C39.33 32.7375 39.4553 32.8226 39.5939 32.8794C39.7325 32.9363 39.8815 32.9637 40.0313 32.9599C40.1749 32.9556 40.3162 32.9224 40.4468 32.8624C40.5774 32.8024 40.6946 32.7167 40.7913 32.6104C40.8881 32.5041 40.9625 32.3794 41.01 32.2438C41.0576 32.1082 41.0774 31.9644 41.0682 31.8209C41.1107 31.107 41.0937 30.4016 41.0937 29.6961V29.6876Z" fill="#FFB100" stroke="white" stroke-width="0.5"/>
<path d="M41.0597 17.6951C41.0642 17.8298 41.042 17.964 40.9944 18.09C40.9468 18.216 40.8746 18.3314 40.7822 18.4294C40.6897 18.5274 40.5788 18.6061 40.4557 18.6609C40.3327 18.7158 40.2 18.7457 40.0653 18.749C39.8106 18.737 39.5692 18.6316 39.3873 18.4528C39.2054 18.2741 39.0958 18.0346 39.0794 17.7801C39.0677 17.5228 39.1572 17.271 39.3287 17.0788C39.5003 16.8866 39.7402 16.7692 39.9973 16.7517C40.1298 16.7401 40.2633 16.7556 40.3896 16.7974C40.5158 16.8391 40.6323 16.9062 40.7317 16.9945C40.8312 17.0828 40.9116 17.1905 40.968 17.311C41.0244 17.4315 41.0556 17.5622 41.0597 17.6951Z" fill="#FFB100" stroke="white" stroke-width="0.5"/>
<path d="M41.0427 21.2988C41.0427 21.5603 40.9388 21.811 40.7539 21.9959C40.569 22.1808 40.3183 22.2847 40.0568 22.2847C39.7953 22.2847 39.5445 22.1808 39.3596 21.9959C39.1747 21.811 39.0709 21.5603 39.0709 21.2988C39.0709 21.0373 39.1747 20.7865 39.3596 20.6016C39.5445 20.4167 39.7953 20.3129 40.0568 20.3129C40.3183 20.3129 40.569 20.4167 40.7539 20.6016C40.9388 20.7865 41.0427 21.0373 41.0427 21.2988Z" fill="#FFB100" stroke="white" stroke-width="0.5"/>
<path d="M47.1622 14.0318V18.749C47.1622 23.2876 47.1622 27.8262 47.1622 32.3479C47.1169 34.2063 46.351 35.9744 45.0264 37.2787C43.7018 38.583 41.9221 39.3214 40.0632 39.3379C38.2043 39.3545 36.4117 38.6479 35.064 37.3674C33.7164 36.0868 32.9192 34.3327 32.8408 32.4754C32.8408 27.8262 32.8408 23.1771 32.8408 18.528V13.9638C31.7189 14.3633 30.648 14.6693 29.6366 15.1113C20.7038 19.0889 15.1878 25.8629 13.3689 35.5096C12.2566 42.0253 13.5729 48.7225 17.0683 54.3326C20.5637 59.9427 25.9954 64.0758 32.3344 65.9489C38.6733 67.822 45.4791 67.3049 51.4623 64.4956C57.4455 61.6864 62.1905 56.7801 64.7983 50.7064C68.9544 40.8897 67.4841 31.5829 61.0331 23.0921C60.8546 22.8626 60.6591 22.6501 60.4891 22.4207C60.3989 22.3226 60.3297 22.207 60.2857 22.0812C60.2418 21.9554 60.2241 21.8219 60.2336 21.6889C60.2432 21.556 60.2798 21.4264 60.3413 21.3082C60.4028 21.1899 60.4878 21.0855 60.5911 21.0013C60.6885 20.9082 60.8053 20.8377 60.933 20.7948C61.0607 20.752 61.1963 20.7377 61.3302 20.7531C61.464 20.7685 61.5928 20.8132 61.7075 20.884C61.8221 20.9548 61.9198 21.05 61.9935 21.1628C63.0988 22.5415 64.1232 23.9832 65.0617 25.4804C68.0609 30.633 69.4006 36.5841 68.8988 42.5248C68.397 48.4655 66.078 54.1075 62.257 58.684C58.436 63.2604 53.2985 66.5492 47.5428 68.1033C41.7871 69.6574 35.6924 69.4015 30.0873 67.3702C24.4822 65.3389 19.6385 61.6308 16.2148 56.7501C12.791 51.8693 10.9533 46.0527 10.9514 40.0908C10.9496 34.129 12.7836 28.3112 16.2043 23.4283C19.6249 18.5454 24.4662 14.8343 30.0701 12.7994C40.2692 9.16173 49.746 10.9126 58.3133 17.5336C58.9252 18.001 59.0357 18.6045 58.6533 19.0719C58.2708 19.5394 57.6758 19.5564 57.0724 19.0719C54.3362 16.8448 51.1883 15.1784 47.8081 14.1678C47.6466 14.1423 47.4342 14.0998 47.1622 14.0318ZM34.8977 13.4624C34.8977 13.6919 34.8552 13.7939 34.8552 13.9044C34.8552 20.1174 34.8552 26.3389 34.8552 32.6028C34.8484 33.9734 35.3864 35.2905 36.3507 36.2644C37.315 37.2382 38.6267 37.7892 39.9973 37.7959C41.3678 37.8027 42.6849 37.2647 43.6588 36.3004C44.6327 35.3361 45.1836 34.0244 45.1903 32.6538C45.1903 26.4578 45.1903 20.2618 45.1903 14.0658C45.1903 13.6919 45.1138 13.4964 44.6974 13.4709C42.734 13.3519 40.7707 13.1394 38.8159 13.1224C37.5046 13.1647 36.1966 13.2782 34.8977 13.4624Z" fill="#FFB100" stroke="white" stroke-width="0.5"/>
<path d="M40.0653 68.3765C55.5885 68.3765 68.1725 55.7925 68.1725 40.2693C68.1725 24.7461 55.5885 12.162 40.0653 12.162C24.5421 12.162 11.958 24.7461 11.958 40.2693C11.958 55.7925 24.5421 68.3765 40.0653 68.3765Z" stroke="#FFB100" stroke-width="1.4" stroke-miterlimit="10"/>
</svg>
