<svg width="80" height="80" viewBox="0 0 80 80" fill="none" xmlns="http://www.w3.org/2000/svg">
<path d="M29.8788 8.30186H26.4406V6.08996C26.5282 6.05069 26.6207 6.02369 26.7156 6.00973H30.7498C30.9123 5.98842 31.0775 6.00221 31.2342 6.05018C31.391 6.09815 31.5356 6.17919 31.6583 6.28781C31.7811 6.39644 31.8791 6.53013 31.9458 6.67986C32.0125 6.8296 32.0462 6.99189 32.0448 7.1558C32.2397 9.70006 32.4345 12.2443 32.595 14.7886C32.6702 16.6972 33.4813 18.5027 34.8582 19.8265C36.2352 21.1503 38.0712 21.8897 39.9813 21.8897C41.8915 21.8897 43.7274 21.1503 45.1044 19.8265C46.4814 18.5027 47.2925 16.6972 47.3677 14.7886C47.5282 12.2443 47.7345 9.70006 47.9178 7.1558C47.9169 6.99407 47.9501 6.83397 48.0154 6.68602C48.0807 6.53806 48.1766 6.40561 48.2968 6.29736C48.4169 6.18911 48.5586 6.10751 48.7126 6.05794C48.8665 6.00837 49.0292 5.99194 49.19 6.00973H52.1697C53.1897 6.00973 53.5909 6.39939 53.5909 7.40793C53.5909 10.296 53.5909 13.1383 53.5909 16.0607C53.5368 20.1775 54.6067 24.231 56.6852 27.785C56.8312 28.0257 56.9186 28.2973 56.9405 28.5779C56.9624 28.8586 56.9182 29.1405 56.8113 29.4009C55.7798 32.4609 54.6682 35.5094 53.7857 38.5694C52.3571 43.4767 52.7645 48.7363 54.9318 53.3651C55.5277 54.6945 56.0778 56.0354 56.754 57.3534C56.9058 57.6197 56.9667 57.9282 56.9274 58.2323C56.8881 58.5363 56.7508 58.8192 56.5362 59.0381C52.4906 63.8058 48.5138 68.5963 44.388 73.3525C44.0583 73.7035 43.6078 73.9165 43.1273 73.9484C41.03 74.0172 38.9212 74.0172 36.8239 73.9484C36.3432 73.9232 35.8893 73.7187 35.5518 73.3754C31.4833 68.6765 27.4377 63.8745 23.3806 59.084C23.1776 58.8699 23.0481 58.5967 23.011 58.304C22.9739 58.0114 23.0311 57.7145 23.1743 57.4566C24.0797 55.4624 25.0653 53.4797 25.7873 51.4283C27.4206 46.8438 27.4206 41.8359 25.7873 37.2514C24.9049 34.6613 24.0682 32.1056 23.1743 29.5384C23.0684 29.2527 23.0278 28.9469 23.0556 28.6435C23.0834 28.3401 23.1788 28.0467 23.3348 27.785C25.3531 24.3048 26.4019 20.3473 26.3718 16.3243V6.00973H28.664V13.207C28.8449 16.0403 28.6445 18.8851 28.068 21.665C27.7773 22.771 27.8869 23.9441 28.3774 24.9771C29.7527 28.358 31.2082 31.7274 32.3543 35.1885C34.9008 42.7548 34.4245 51.0126 31.0248 58.2359C30.4862 59.382 29.8788 60.6426 29.3745 61.8345C29.283 61.9826 29.2444 62.1574 29.2653 62.3302C29.2861 62.503 29.365 62.6637 29.4891 62.7858C31.9532 65.6509 34.3828 68.5161 36.8354 71.4156C37.0367 71.6277 37.3114 71.7548 37.6033 71.7709C39.2078 71.7709 40.8122 71.7709 42.4167 71.7709C42.7046 71.7519 42.9747 71.625 43.1731 71.4156C45.7174 68.4588 48.2158 65.479 50.7486 62.5107C50.8824 62.3844 50.9664 62.2143 50.9853 62.0313C51.0043 61.8483 50.9569 61.6646 50.8518 61.5136C49.2344 58.5246 47.9655 55.3599 47.0698 52.0815C45.5189 45.7002 45.9956 38.9942 48.4336 32.8964C49.6369 29.8708 50.8632 26.8566 52.0437 23.8196C52.1843 23.4541 52.2122 23.055 52.1239 22.6735C51.6018 20.5971 51.3325 18.4653 51.3217 16.3243V8.30186H50.1068C49.9922 9.92927 49.8661 11.5452 49.763 13.1612C49.7899 15.2697 49.3187 17.3547 48.3877 19.2468C47.3546 21.0604 45.7625 22.4911 43.8493 23.3254C41.936 24.1597 39.8042 24.3527 37.7722 23.8756C35.7403 23.3986 33.9171 22.2771 32.575 20.6785C31.2329 19.08 30.4439 17.0902 30.3258 15.0063C30.2111 12.7944 30.0163 10.594 29.8788 8.30186ZM27.4262 60.3332C27.5179 60.3332 27.5752 60.253 27.5867 60.2186C28.0451 59.233 28.5035 58.2473 28.939 57.2617C32.0904 50.584 32.542 42.9475 30.1997 35.9449C29.1682 32.8047 27.8159 29.7906 26.601 26.7764C26.601 26.7764 26.5323 26.7764 26.4635 26.7191C26.1999 27.2463 25.9592 27.785 25.6498 28.2778C25.5293 28.4628 25.4567 28.6749 25.4387 28.895C25.4207 29.1151 25.4578 29.3363 25.5467 29.5384C26.3489 31.8306 27.1053 34.1915 27.8388 36.518C29.6306 41.4607 29.7033 46.8632 28.0451 51.8523C27.4033 53.7892 26.4635 55.6343 25.6727 57.5826C25.5828 57.807 25.5828 58.0574 25.6727 58.2817C26.1885 58.935 26.8188 59.6226 27.4262 60.3332ZM52.8001 60.1154C53.3043 59.5195 53.7513 58.9694 54.2441 58.4193C54.3741 58.3008 54.4572 58.1395 54.4782 57.9649C54.4992 57.7903 54.4568 57.614 54.3587 57.468C53.8888 56.4939 53.4533 55.4968 52.9949 54.5112C50.5346 49.3375 50.0575 43.441 51.654 37.9391C52.4677 35.0854 53.4992 32.289 54.4275 29.4697C54.5077 29.229 54.6452 28.9196 54.565 28.7362C54.2441 28.0142 53.8545 27.3265 53.419 26.4441C52.0781 30.0083 50.7028 33.3204 49.614 36.7586C49.0363 38.7292 48.6864 40.7596 48.5711 42.8099C48.1977 48.8734 49.6723 54.9075 52.8001 60.1154Z" fill="#FFB100"/>
<path d="M43.345 27.6016V29.7791H36.6291V27.6016H43.345Z" fill="#FFB100"/>
</svg>
